<svg width="312" height="99" viewBox="0 0 312 99" fill="none" xmlns="http://www.w3.org/2000/svg">
<rect y="21" width="312" height="77" rx="38.5" fill="#F5F6F7"/>
<path d="M118 10C118 4.47715 122.477 0 128 0H184C189.523 0 194 4.47715 194 10V42H118V10Z" fill="#F5F6F7"/>
<path d="M148.56 10.24H145.02V22H142.96V10.24H139.44V8.52H148.56V10.24ZM160.64 22H158.58V16.1H152.52V22H150.46V8.52H152.52V14.32H158.58V8.52H160.64V22ZM171.365 22H163.585V8.52H171.265V10.24H165.645V14.4H170.625V16.12H165.645V20.28H171.365V22Z" fill="#05142B"/>
<rect x="46" y="69" width="220" height="28" rx="10" fill="white"/>
<path d="M26 42C26 36.4772 30.4772 32 36 32H64V77H36C30.4772 77 26 72.5228 26 67V42Z" fill="#05142B"/>
<path d="M286 42C286 36.4772 281.523 32 276 32H248V77H276C281.523 77 286 72.5228 286 67V42Z" fill="#05142B"/>
<path d="M35 77C35 75.8954 35.8954 75 37 75H64V77H35V77Z" fill="#38B1D9"/>
<path d="M277 77C277 75.8954 276.105 75 275 75H248V77H277V77Z" fill="#38B1D9"/>
<path d="M51.516 57.316H43.092V67H38.52V42.736H52.74V46.444H43.092V53.608H51.516V57.316Z" fill="white"/>
<path d="M273.992 67H259.52V42.736H273.848V46.444H264.092V53.032H272.768V56.704H264.092V63.292H273.992V67Z" fill="white"/>
<path d="M105.348 57.676C105.348 60.82 104.496 63.22 102.792 64.876C101.112 66.508 98.796 67.324 95.844 67.324C92.964 67.324 90.66 66.52 88.932 64.912C87.228 63.28 86.376 60.952 86.376 57.928V42.736H90.912V57.892C90.912 59.74 91.368 61.084 92.28 61.924C93.192 62.74 94.38 63.148 95.844 63.148C99.156 63.148 100.812 61.336 100.812 57.712V42.736H105.348V57.676ZM143.91 46.48H137.754V67H133.182V46.48H127.026V42.736H143.91V46.48ZM184.502 57.676C184.502 60.82 183.65 63.22 181.946 64.876C180.266 66.508 177.95 67.324 174.998 67.324C172.118 67.324 169.814 66.52 168.086 64.912C166.382 63.28 165.53 60.952 165.53 57.928V42.736H170.066V57.892C170.066 59.74 170.522 61.084 171.434 61.924C172.346 62.74 173.534 63.148 174.998 63.148C178.31 63.148 179.966 61.336 179.966 57.712V42.736H184.502V57.676ZM215.252 46.48H212.3V54.4H215.324C216.716 54.4 217.76 54.052 218.456 53.356C219.152 52.636 219.5 51.64 219.5 50.368C219.5 49.12 219.128 48.16 218.384 47.488C217.664 46.816 216.62 46.48 215.252 46.48ZM212.3 67H207.764V42.736H215.252C218.012 42.736 220.172 43.432 221.732 44.824C223.316 46.216 224.108 48.076 224.108 50.404C224.084 52.132 223.664 53.596 222.848 54.796C222.032 55.972 220.916 56.848 219.5 57.424L225.728 67H220.292L214.784 58.144H212.3V67Z" fill="#05142B"/>
<path d="M124.134 89.46C123.402 89.916 122.346 90.144 120.966 90.144C119.19 90.144 117.702 89.574 116.502 88.434C115.314 87.282 114.72 85.794 114.72 83.97C114.72 82.122 115.296 80.616 116.448 79.452C117.612 78.288 119.124 77.706 120.984 77.706C122.352 77.706 123.402 77.934 124.134 78.39V81.054C123.234 80.502 122.232 80.226 121.128 80.226C120.156 80.226 119.34 80.568 118.68 81.252C118.02 81.924 117.69 82.83 117.69 83.97C117.69 85.086 118.02 85.974 118.68 86.634C119.34 87.282 120.192 87.606 121.236 87.606C122.364 87.606 123.33 87.318 124.134 86.742V89.46ZM136.343 90H129.089V77.868H131.861V87.57H136.343V90ZM144.43 84.852L144.304 85.284H147.22L147.094 84.852C146.746 83.676 146.458 82.674 146.23 81.846C146.014 81.018 145.882 80.484 145.834 80.244L145.762 79.884C145.666 80.544 145.222 82.2 144.43 84.852ZM142.9 90H140.002L144.052 77.868H147.544L151.594 90H148.624L147.886 87.516H143.638L142.9 90ZM163.608 86.472C163.608 87.564 163.206 88.452 162.402 89.136C161.598 89.808 160.53 90.144 159.198 90.144C157.77 90.144 156.606 89.892 155.706 89.388V86.598C156.798 87.39 157.962 87.786 159.198 87.786C159.618 87.786 159.966 87.678 160.242 87.462C160.518 87.234 160.656 86.94 160.656 86.58C160.656 86.46 160.638 86.346 160.602 86.238C160.566 86.13 160.5 86.028 160.404 85.932C160.308 85.836 160.212 85.758 160.116 85.698C160.032 85.626 159.9 85.548 159.72 85.464C159.552 85.368 159.408 85.29 159.288 85.23C159.168 85.17 158.988 85.086 158.748 84.978C158.52 84.87 158.334 84.786 158.19 84.726C157.41 84.366 156.78 83.922 156.3 83.394C155.832 82.866 155.598 82.164 155.598 81.288C155.598 80.244 155.982 79.404 156.75 78.768C157.518 78.12 158.58 77.796 159.936 77.796C161.148 77.796 162.192 78 163.068 78.408V81C162.096 80.436 161.088 80.154 160.044 80.154C159.576 80.154 159.216 80.25 158.964 80.442C158.724 80.634 158.604 80.88 158.604 81.18C158.604 81.48 158.754 81.75 159.054 81.99C159.354 82.218 159.804 82.464 160.404 82.728C160.776 82.896 161.082 83.046 161.322 83.178C161.574 83.298 161.856 83.472 162.168 83.7C162.492 83.916 162.744 84.15 162.924 84.402C163.116 84.642 163.278 84.942 163.41 85.302C163.542 85.662 163.608 86.052 163.608 86.472ZM175.734 86.472C175.734 87.564 175.332 88.452 174.528 89.136C173.724 89.808 172.656 90.144 171.324 90.144C169.896 90.144 168.732 89.892 167.832 89.388V86.598C168.924 87.39 170.088 87.786 171.324 87.786C171.744 87.786 172.092 87.678 172.368 87.462C172.644 87.234 172.782 86.94 172.782 86.58C172.782 86.46 172.764 86.346 172.728 86.238C172.692 86.13 172.626 86.028 172.53 85.932C172.434 85.836 172.338 85.758 172.242 85.698C172.158 85.626 172.026 85.548 171.846 85.464C171.678 85.368 171.534 85.29 171.414 85.23C171.294 85.17 171.114 85.086 170.874 84.978C170.646 84.87 170.46 84.786 170.316 84.726C169.536 84.366 168.906 83.922 168.426 83.394C167.958 82.866 167.724 82.164 167.724 81.288C167.724 80.244 168.108 79.404 168.876 78.768C169.644 78.12 170.706 77.796 172.062 77.796C173.274 77.796 174.318 78 175.194 78.408V81C174.222 80.436 173.214 80.154 172.17 80.154C171.702 80.154 171.342 80.25 171.09 80.442C170.85 80.634 170.73 80.88 170.73 81.18C170.73 81.48 170.88 81.75 171.18 81.99C171.48 82.218 171.93 82.464 172.53 82.728C172.902 82.896 173.208 83.046 173.448 83.178C173.7 83.298 173.982 83.472 174.294 83.7C174.618 83.916 174.87 84.15 175.05 84.402C175.242 84.642 175.404 84.942 175.536 85.302C175.668 85.662 175.734 86.052 175.734 86.472ZM187.86 90H180.318V77.868H187.788V80.082H183.108V82.836H187.284V85.032H183.108V87.786H187.86V90ZM200.531 86.472C200.531 87.564 200.129 88.452 199.325 89.136C198.521 89.808 197.453 90.144 196.121 90.144C194.693 90.144 193.529 89.892 192.629 89.388V86.598C193.721 87.39 194.885 87.786 196.121 87.786C196.541 87.786 196.889 87.678 197.165 87.462C197.441 87.234 197.579 86.94 197.579 86.58C197.579 86.46 197.561 86.346 197.525 86.238C197.489 86.13 197.423 86.028 197.327 85.932C197.231 85.836 197.135 85.758 197.039 85.698C196.955 85.626 196.823 85.548 196.643 85.464C196.475 85.368 196.331 85.29 196.211 85.23C196.091 85.17 195.911 85.086 195.671 84.978C195.443 84.87 195.257 84.786 195.113 84.726C194.333 84.366 193.703 83.922 193.223 83.394C192.755 82.866 192.521 82.164 192.521 81.288C192.521 80.244 192.905 79.404 193.673 78.768C194.441 78.12 195.503 77.796 196.859 77.796C198.071 77.796 199.115 78 199.991 78.408V81C199.019 80.436 198.011 80.154 196.967 80.154C196.499 80.154 196.139 80.25 195.887 80.442C195.647 80.634 195.527 80.88 195.527 81.18C195.527 81.48 195.677 81.75 195.977 81.99C196.277 82.218 196.727 82.464 197.327 82.728C197.699 82.896 198.005 83.046 198.245 83.178C198.497 83.298 198.779 83.472 199.091 83.7C199.415 83.916 199.667 84.15 199.847 84.402C200.039 84.642 200.201 84.942 200.333 85.302C200.465 85.662 200.531 86.052 200.531 86.472Z" fill="#05142B"/>
</svg>
