<svg width="325" height="271" viewBox="0 0 325 271" fill="none" xmlns="http://www.w3.org/2000/svg">
<g clip-path="url(#clip0_1487_3156)">
<path d="M178.125 17.1875C181.386 19.2434 183.614 20.9506 186 24C186.237 25.4987 186.466 26.9989 186.688 28.5C187.221 30.952 187.221 30.952 189 33C197.233 37.2676 205.984 38.3733 215 37C217.706 38.7455 217.966 39.8978 219 43C221.412 44.7109 223.777 46.2464 226.312 47.75C226.99 48.1741 227.667 48.5982 228.365 49.0351C229.354 49.6287 229.354 49.6287 230.363 50.2343C230.964 50.5975 231.565 50.9607 232.185 51.3349C234.513 52.1878 235.699 51.835 238 51C239.253 50.1815 240.482 49.3246 241.688 48.4375C246.109 45.6048 249.844 44.9573 255 46C259.866 48.5709 264.224 51.6708 266 57C266.778 63.5776 265.71 67.551 262 73C261.34 73 260.68 73 260 73C259.033 76.1125 258.743 77.4801 260.215 80.457C260.783 81.2343 261.352 82.0116 261.938 82.8125C262.503 83.6027 263.069 84.3929 263.652 85.207C264.097 85.7987 264.542 86.3904 265 87C267.597 84.7067 268.776 82.573 270.062 79.375C271.781 75.1094 271.781 75.1094 274 74C280.291 73.4281 280.291 73.4281 282.938 75.5625C284.413 78.947 284.457 81.346 284 85C281.757 88.2303 280.048 88.9827 276.312 90.3125C275.219 90.8693 274.126 91.4262 273 92C272.01 95.5082 272.01 95.5082 272 99C271.67 99.66 271.34 100.32 271 101C271.423 103.026 271.423 103.026 272.215 105.281C272.489 106.123 272.763 106.965 273.045 107.832C273.487 109.153 273.487 109.153 273.938 110.5C274.512 112.239 275.083 113.978 275.652 115.719C275.91 116.492 276.168 117.264 276.433 118.061C277 120 277 120 277 122C277.895 122.026 278.789 122.052 279.711 122.078C289.982 122.56 298.044 123.53 305.438 131.125C312.625 139.078 312.508 149.675 312.446 159.822C312.438 161.931 312.466 164.038 312.498 166.146C312.547 175.698 311.327 183.788 306.125 191.937C301.03 196.882 296.433 198.982 289.457 199.535C287.847 199.666 287.847 199.666 286.205 199.799C285.086 199.886 283.966 199.973 282.812 200.062C281.116 200.199 281.116 200.199 279.385 200.338C276.59 200.562 273.795 200.782 271 201C270.677 201.829 270.355 202.659 270.023 203.513C267.371 210.269 264.297 216.153 260 222C261.617 225.407 263.614 228.076 266 231C267.737 234.474 267.461 238.202 267 242C264.468 246.971 261.011 250.494 256 253C249.493 253.847 245.017 253.087 239.594 249.387C238 248 238 248 236 245C232.771 246.536 229.708 248.323 226.621 250.123C198.91 266.144 165.309 269.626 134.302 261.637C123.273 258.584 113.76 254.085 104.109 247.953C101.767 246.482 99.5014 245.164 97 244C96.7731 244.577 96.5462 245.155 96.3125 245.75C94.3337 249.142 91.4901 251.255 88 253C82.3853 253.626 77.2747 253.607 72.4727 250.395C68.6852 246.808 67.2236 242.565 66.5 237.5C67.2489 232.258 69.2346 227.765 73 224C72.7142 219.169 70.1828 215.029 68 210.812C67.447 209.727 67.447 209.727 66.8828 208.619C65.9267 206.744 64.9638 204.872 64 203C63.67 202.34 63.34 201.68 63 201C60.3133 200.595 60.3133 200.595 57.0586 200.508C55.2226 200.409 55.2226 200.409 53.3496 200.309C50.7692 200.187 48.1884 200.073 45.6074 199.965C37.4625 199.514 31.1912 198.919 25.0117 193.141C24.3562 192.205 24.3562 192.205 23.6875 191.25C23.0127 190.33 23.0127 190.33 22.3242 189.391C17.7302 181.097 17.5317 173.63 17.6089 164.364C17.6249 162.071 17.609 159.78 17.5898 157.486C17.5737 147.622 17.763 138.717 24.8125 131.125C25.7812 130.046 25.7812 130.046 26.7695 128.945C32.1088 124.289 37.2634 123.467 44.0625 122.937C51.2367 122.371 51.2367 122.371 58 120C58.0825 118.907 58.165 117.814 58.25 116.687C58.8169 112.103 60.3006 108.063 61.9453 103.766C63.425 99.8854 64.7134 95.9475 66 92C67.98 92 69.96 92 72 92C72 91.01 72 90.02 72 89C71.01 88.67 70.02 88.34 69 88C69.3957 87.2639 69.7915 86.5279 70.1992 85.7695C70.6903 84.7937 71.1815 83.8179 71.6875 82.8125C72.1864 81.8495 72.6852 80.8866 73.1992 79.8945C74.3613 76.9845 74.3613 76.9845 72.6641 74.4843C72.1149 73.6645 71.5658 72.8446 71 72C70.6367 69.2461 70.6367 69.2461 70.6875 66.4375C70.6914 65.508 70.6952 64.5786 70.6992 63.6211C71.1249 59.9119 72.029 57.8784 74.8047 55.3671C75.4879 54.8747 76.1711 54.3823 76.875 53.875C77.553 53.3774 78.2311 52.8798 78.9297 52.3671C83.4804 49.362 86.4428 48.5209 92 49C93.5159 49.8043 93.5159 49.8043 95.0625 50.625C97.908 52.3294 97.908 52.3294 100.793 51.3281C104.241 49.9001 107.145 48.1927 110.25 46.125C111.286 45.4469 112.323 44.7689 113.391 44.0703C115.942 42.0461 116.691 40.8615 118 38C120.799 37.2089 122.922 36.6187 125.723 37.6093C129.203 38.2064 132.248 37.0502 135.562 36.0625C142.662 34 142.662 34 146 34C146.075 33.1298 146.15 32.2597 146.227 31.3632C147.154 27.3308 148.716 25.3321 151.375 22.1875C152.166 21.2323 152.958 20.2771 153.773 19.2929C158.911 14.002 171.437 14.5569 178.125 17.1875ZM275 78C274.67 79.98 274.34 81.96 274 84C276.475 84.495 276.475 84.495 279 85C278.424 82.6143 277.778 80.3331 277 78C276.34 78 275.68 78 275 78ZM66 103C65.4661 104.412 64.9483 105.83 64.4375 107.25C64.1475 108.039 63.8574 108.828 63.5586 109.641C62.9548 112.191 63.1526 113.553 64 116C67.5223 109.894 67.5223 109.894 68 103C67.34 103 66.68 103 66 103ZM69 203C69.3423 205.971 69.3423 205.971 70 209C70.66 209.33 71.32 209.66 72 210C71.4255 206.069 71.4255 206.069 69 203ZM264 203C263.34 203.66 262.68 204.32 262 205C262 206.32 262 207.64 262 209C262.66 209 263.32 209 264 209C264.33 207.02 264.66 205.04 265 203C264.67 203 264.34 203 264 203Z" fill="#05142B"/>
<path d="M56.5625 131.688C58.1595 131.713 59.7565 131.735 61.3535 131.756C65.2366 131.811 69.1179 131.897 73 132C73.014 133.057 73.014 133.057 73.0283 134.136C73.0826 137.383 73.1661 140.629 73.25 143.875C73.2642 144.984 73.2784 146.092 73.293 147.234C73.615 158.73 73.615 158.73 79.3415 168.287C86.1999 173.419 93.9811 172.708 102.146 172.659C103.783 172.668 105.42 172.679 107.056 172.691C111.482 172.719 115.906 172.717 120.331 172.709C124.963 172.706 129.594 172.731 134.225 172.753C142.986 172.79 151.748 172.802 160.51 172.806C170.488 172.81 180.466 172.843 190.444 172.878C210.963 172.95 231.481 172.983 252 173C252 159.47 252 145.94 252 132C260.91 131.907 260.91 131.907 270 131.813C272.788 131.772 272.788 131.772 275.633 131.73C277.13 131.721 278.628 131.713 280.125 131.707C280.883 131.692 281.641 131.676 282.422 131.661C288.179 131.658 294.151 132.359 298.567 136.452C302.611 141.203 303.167 144.353 303.203 150.387C303.209 151.122 303.215 151.857 303.22 152.615C303.23 154.174 303.236 155.733 303.24 157.293C303.25 159.661 303.281 162.028 303.312 164.397C303.319 165.914 303.324 167.432 303.328 168.949C303.34 169.651 303.353 170.352 303.366 171.074C303.337 177.442 301.743 181.88 297.688 186.813C292.639 190.921 287.729 191.24 281.371 191.238C279.909 191.254 278.448 191.27 276.986 191.287C274.706 191.304 272.427 191.312 270.147 191.305C267.929 191.303 265.713 191.331 263.496 191.363C261.519 191.368 261.519 191.368 259.502 191.372C255.844 191.662 255.844 191.662 253.713 194.5C250.292 197.653 248.685 197.626 244.092 197.628C243.41 197.635 242.727 197.642 242.024 197.65C239.742 197.667 237.463 197.649 235.182 197.631C233.544 197.636 231.906 197.644 230.268 197.653C225.824 197.671 221.38 197.658 216.936 197.639C212.284 197.622 207.633 197.631 202.981 197.636C195.17 197.641 187.359 197.625 179.547 197.597C170.517 197.565 161.487 197.565 152.457 197.582C143.769 197.598 135.082 197.591 126.394 197.574C122.697 197.567 119 197.568 115.304 197.576C110.95 197.583 106.597 197.571 102.243 197.544C100.646 197.537 99.048 197.537 97.4504 197.544C95.2689 197.553 93.089 197.537 90.9076 197.515C89.077 197.51 89.077 197.51 87.2094 197.506C83.3944 196.905 81.6924 195.724 79 193C79 192.34 79 191.68 79 191C77.8197 191.016 76.6394 191.031 75.4233 191.048C71.0289 191.102 66.6344 191.136 62.2397 191.165C60.3406 191.18 58.4415 191.2 56.5425 191.226C53.8069 191.263 51.0717 191.28 48.3359 191.293C47.492 191.308 46.648 191.324 45.7784 191.34C39.2454 191.342 35.1713 189.93 30.1875 185.5C26.4335 181.21 26.8257 176.995 26.7969 171.57C26.7912 170.743 26.7855 169.916 26.7796 169.063C26.7702 167.313 26.7636 165.563 26.7598 163.813C26.7501 161.142 26.719 158.472 26.6875 155.801C26.681 154.099 26.6757 152.397 26.6719 150.695C26.6595 149.899 26.6472 149.103 26.6345 148.283C26.6528 143.689 27.0231 140.723 30 137C37.2128 130.109 47.3471 131.435 56.5625 131.688Z" fill="#F5F6F7"/>
<path d="M150 47C152.062 49.3125 152.062 49.3125 154 52C157.558 54.5542 159.532 55.1064 164 56C164 59.96 164 63.92 164 68C165.98 68 167.96 68 170 68C170 64.04 170 60.08 170 56C171.567 55.4431 173.135 54.8862 174.75 54.3125C178.358 52.9095 179.727 52.3727 182.062 49.1875C183.022 48.1047 183.022 48.1047 184 47C202.534 46.3822 221.421 58.3362 234.477 70.3603C247.828 82.87 258.235 98.1313 263 116C263 117.32 263 118.64 263 120C255.41 120 247.82 120 240 120C239.154 117.587 238.309 115.174 237.438 112.687C231.516 96.7036 220.998 83.3377 206.023 74.8554C203.906 73.8053 203.906 73.8053 201 74C201.763 74.6806 202.526 75.3612 203.312 76.0625C205.593 78.5551 206.464 79.7204 207.625 82.6875C208.733 86.2234 208.733 86.2234 212 88C212.99 88 213.98 88 215 88C215 89.32 215 90.64 215 92C214.34 92 213.68 92 213 92C213.589 93.1086 214.178 94.2172 214.785 95.3593C215.545 96.8226 216.304 98.2861 217.062 99.75C217.452 100.48 217.842 101.209 218.244 101.961C218.79 103.024 218.79 103.024 219.348 104.109C219.688 104.759 220.028 105.408 220.379 106.077C221.136 108.42 220.788 109.705 220 112C219.203 110.285 219.203 110.285 218.391 108.535C217.678 107.044 216.964 105.553 216.25 104.062C215.728 102.93 215.728 102.93 215.195 101.775C214.673 100.697 214.673 100.697 214.141 99.5976C213.826 98.9326 213.512 98.2675 213.188 97.5822C212.097 95.8296 212.097 95.8296 210 95.2676C207.788 94.9717 205.954 95.1069 203.75 95.4375C201.894 95.7159 201.894 95.7159 200 96C200.433 97.3032 200.433 97.3032 200.875 98.6328C201.246 99.7852 201.618 100.938 202 102.125C202.371 103.262 202.743 104.399 203.125 105.57C204 109 204 109 204 115C210.27 115 216.54 115 223 115C223 115.99 223 116.98 223 118C212.605 118.495 212.605 118.495 202 119C200.02 112.4 198.04 105.8 196 99C193.36 99.33 190.72 99.66 188 100C181.628 100.76 175.419 101.104 169 101C169 102.65 169 104.3 169 106C167.68 106 166.36 106 165 106C165 104.35 165 102.7 165 101C164.308 101.023 163.616 101.046 162.902 101.07C154.411 101.227 146.375 100.281 138 99C137.734 99.9294 137.469 100.859 137.195 101.816C135.464 107.878 133.732 113.939 132 120C111.87 120 91.74 120 71 120C72.5965 107.228 77.9169 97.6182 85 87C85.6793 85.9765 86.3587 84.9529 87.0586 83.8984C98.695 67.3726 116.496 54.9936 135.75 49.1875C136.471 48.9682 137.193 48.7489 137.936 48.5229C142.028 47.3503 145.704 46.5376 150 47Z" fill="#41B3DC"/>
<path d="M76 201C98.151 198.775 98.151 198.775 104.182 202.261C107.56 205.437 109.796 209.292 112.013 213.33C114.208 217.044 117.59 219.465 121 222C121.822 222.654 122.645 223.307 123.492 223.981C138.708 235.213 158.403 238.709 176.938 236.539C190.625 234.421 203.151 229.788 214 221C214.757 220.406 215.513 219.812 216.293 219.199C219.8 216.284 222.524 213.879 224.719 209.824C228.539 202.936 228.539 202.936 232 201C239.862 199.471 248.076 200.268 256 201C254.113 211.293 247.035 218.648 240 226C239.138 226.972 238.275 227.944 237.387 228.945C222.538 245.281 199.527 254.98 177.594 256.188C174.039 256.267 170.493 256.273 166.938 256.25C165.748 256.258 164.559 256.266 163.334 256.273C139.508 256.221 116.501 247.227 99 231C98.224 230.292 97.448 229.585 96.6484 228.856C88.0947 220.699 81.5703 211.369 76 201Z" fill="#F7FAFB"/>
<path d="M150 47C152.062 49.3125 152.062 49.3125 154 52C157.272 54.3491 160.019 55.4313 164 56C164 58.64 164 61.28 164 64C163.163 64.0863 162.327 64.1727 161.465 64.2617C141.723 66.6447 123.694 74.1151 110.121 89.0703C108.631 90.9926 107.298 92.9433 106 95C105.234 96.1717 105.234 96.1717 104.453 97.3672C99.9392 104.54 96.6654 111.673 95 120C87.08 120 79.16 120 71 120C72.5965 107.228 77.9169 97.6182 85 87C85.6793 85.9765 86.3587 84.9529 87.0586 83.8984C98.695 67.3726 116.496 54.9936 135.75 49.1875C136.471 48.9682 137.193 48.7489 137.936 48.5229C142.028 47.3503 145.704 46.5376 150 47Z" fill="#F6FAFB"/>
<path d="M184 47C202.534 46.3822 221.421 58.3363 234.477 70.3604C247.828 82.87 258.235 98.1313 263 116C263 117.32 263 118.64 263 120C255.41 120 247.82 120 240 120C239.154 117.587 238.309 115.174 237.438 112.688C230.656 94.3827 218.304 80.7511 200.656 72.4219C190.597 67.9172 180.988 64.9007 170 64C170 61.36 170 58.72 170 56C170.675 55.7693 171.351 55.5385 172.047 55.3008C177.82 53.3407 177.82 53.3407 182.062 49.1875C182.702 48.4656 183.341 47.7438 184 47Z" fill="#F7FAFB"/>
<path d="M161 71C159.268 71.9282 159.268 71.9282 157.5 72.875C149.059 78.1635 144.737 86.4737 140 95C148.58 95.66 157.16 96.32 166 97C166 88.42 166 79.84 166 71C166.99 71 167.98 71 169 71C169 79.58 169 88.16 169 97C181.375 96.01 181.375 96.01 194 95C187.15 80.8961 187.15 80.8961 175 72C176.625 71.25 176.625 71.25 179 71C188.292 75.8574 193.829 83.6154 198 93C201.3 92.34 204.6 91.68 208 91C207.495 90.3735 206.989 89.7471 206.469 89.1016C205.819 88.2843 205.169 87.4671 204.5 86.625C203.85 85.8129 203.201 85.0008 202.531 84.1641C201 82 201 82 201 80C205.493 80.6876 206.85 83.009 209.438 86.5039C211.121 88.4611 211.121 88.4611 215 88C215 89.32 215 90.64 215 92C214.34 92 213.68 92 213 92C213.589 93.1086 214.178 94.2172 214.785 95.3594C215.545 96.8226 216.304 98.2862 217.062 99.75C217.452 100.48 217.842 101.209 218.244 101.961C218.608 102.67 218.972 103.379 219.348 104.109C219.688 104.759 220.028 105.408 220.379 106.077C221.136 108.42 220.788 109.705 220 112C219.203 110.285 219.203 110.285 218.391 108.535C217.678 107.044 216.964 105.553 216.25 104.063C215.902 103.308 215.554 102.553 215.195 101.775C214.847 101.057 214.499 100.338 214.141 99.5977C213.826 98.9326 213.512 98.2675 213.188 97.5823C212.097 95.8296 212.097 95.8296 210 95.2676C207.788 94.9717 205.954 95.1069 203.75 95.4375C202.513 95.6232 201.275 95.8088 200 96C200.289 96.8689 200.577 97.7377 200.875 98.6328C201.432 100.361 201.432 100.361 202 102.125C202.371 103.262 202.743 104.399 203.125 105.57C204 109 204 109 204 115C210.27 115 216.54 115 223 115C223 115.99 223 116.98 223 118C212.605 118.495 212.605 118.495 202 119C200.02 112.4 198.04 105.8 196 99C192.04 99.495 192.04 99.495 188 100C181.628 100.76 175.419 101.104 169 101C169 102.65 169 104.3 169 106C167.68 106 166.36 106 165 106C165 104.35 165 102.7 165 101C163.962 101.035 163.962 101.035 162.902 101.07C154.411 101.227 146.375 100.281 138 99C137.602 100.412 137.602 100.412 137.195 101.852C136.842 103.097 136.489 104.342 136.125 105.625C135.603 107.47 135.603 107.47 135.07 109.352C134.12 112.59 133.067 115.798 132 119C122.43 118.67 112.86 118.34 103 118C103 117.01 103 116.02 103 115C111.91 115 120.82 115 130 115C130.33 112.36 130.66 109.72 131 107C131.476 104.989 131.991 102.986 132.562 101C132.832 100.051 133.101 99.1025 133.379 98.125C133.686 97.0732 133.686 97.0732 134 96C130.563 95.0526 127.552 94.5051 124 95C121.01 97.6062 119.004 100.596 117 104C116.67 103.34 116.34 102.68 116 102C116.996 99.6172 116.996 99.6172 118.438 96.875C118.911 95.9649 119.384 95.0549 119.871 94.1172C120.43 93.0692 120.43 93.0692 121 92C120.01 91.34 119.02 90.68 118 90C118.33 89.01 118.66 88.02 119 87C119.722 87.0825 120.444 87.165 121.188 87.25C124.967 86.9141 126.266 85.5975 129 83C129.804 81.9894 130.609 80.9788 131.438 79.9375C136.19 74.4891 140.662 73.7958 147.535 73.3203C149.962 73.0049 151.68 72.4231 153.875 71.375C157.196 69.9138 157.758 69.9474 161 71Z" fill="#E5F1F5"/>
<path d="M117 201C117.99 201 118.98 201 120 201C120.33 202.65 120.66 204.3 121 206C121.949 206.062 122.897 206.124 123.875 206.188C124.906 206.456 125.938 206.724 127 207C128.375 209.562 128.375 209.562 129 212C129 210.02 129 208.04 129 206C131.647 204.539 132.894 204 136 204C136 203.01 136 202.02 136 201C136.99 201.33 137.98 201.66 139 202C140.949 202.061 142.899 202.059 144.848 202.022C146.65 201.992 146.65 201.992 148.488 201.961C149.785 201.934 151.082 201.907 152.418 201.879C153.759 201.855 155.1 201.831 156.441 201.807C159.967 201.745 163.493 201.675 167.02 201.605C170.619 201.534 174.219 201.47 177.818 201.404C184.879 201.275 191.94 201.14 199 201C199.495 202.485 199.495 202.485 200 204C204.419 206.219 209.063 207.309 214 207C215 208 215 208 215.562 210.75C215 214 215 214 213.391 215.402C211.3 216.695 209.179 217.864 207 219C206.01 219.598 205.02 220.196 204 220.812C203.01 221.4 203.01 221.4 202 222C203.372 219.046 204.989 216.56 207 214C206.01 213.01 206.01 213.01 205 212C204.46 212.776 203.92 213.552 203.363 214.352C200.709 217.326 198.917 218.101 195.188 219.375C190.077 221.331 187.125 223.427 183.535 227.484C181.33 229.661 178.979 230.346 176 231C176.763 230.257 177.526 229.515 178.312 228.75C180.439 226.574 182.256 224.478 184 222C183.072 222.309 182.144 222.619 181.188 222.938C176.204 224.383 171.159 224.618 166 225C166 217.74 166 210.48 166 203C157.544 203.551 149.331 204.454 141 206C143.154 211.797 145.322 217.008 149 222C137.478 220.073 137.478 220.073 132 218C132.33 219.32 132.66 220.64 133 222C129.529 220.78 127.564 219.564 125 217C123.342 216.312 121.675 215.644 120 215C119.34 214.34 118.68 213.68 118 213C118.165 211.907 118.33 210.814 118.5 209.688C119.014 205.895 118.716 204.331 117 201Z" fill="#115786"/>
<path d="M118 86.9999C118.33 87.9899 118.66 88.9799 119 89.9999C119.99 90.9899 120.98 91.9799 122 92.9999C120.68 95.6399 119.36 98.2799 118 101C118.846 99.8243 119.691 98.6487 120.562 97.4374C122.211 95.496 122.211 95.496 124 93.9999C127.8 93.9999 130.426 94.8086 134 95.9999C133.712 97.6672 133.419 99.3337 133.125 101C132.963 101.928 132.8 102.856 132.633 103.812C131.887 107.57 130.929 111.283 130 115C121.09 115 112.18 115 103 115C103 115.99 103 116.98 103 118C112.24 118 121.48 118 131 118C131.33 118.66 131.66 119.32 132 120C119.79 120 107.58 120 95 120C96.1266 110.987 96.1266 110.987 97.6367 107.965C97.9641 107.304 98.2914 106.643 98.6287 105.961C99.1528 104.96 99.1528 104.96 99.6875 103.937C100.222 102.889 100.222 102.889 100.768 101.82C103.324 96.9449 106.141 92.9535 110 88.9999C110.33 88.3399 110.66 87.6799 111 86.9999C114.1 85.9665 115.056 85.8224 118 86.9999Z" fill="#33A4D1"/>
<path d="M211 135C214.3 134.938 217.6 134.876 221 134.813C222.535 134.772 222.535 134.772 224.102 134.73C230.731 134.67 236.724 135.236 242 139.688C243.484 143.119 243.536 146.361 243 150C241.342 153.731 239.398 155.774 236 158C237.32 160.31 238.64 162.62 240 165C234.698 165.53 234.698 165.53 232 165C231.381 164.031 230.762 163.061 230.125 162.063C228.361 158.805 228.361 158.805 225.539 158.379C223.016 158.149 220.533 158.01 218 158C218 160.31 218 162.62 218 165C215.69 165 213.38 165 211 165C211 155.1 211 145.2 211 135Z" fill="#F3F4F5"/>
<path d="M263 144C271.91 144 280.82 144 290 144C290 146.31 290 148.62 290 151C284.06 151 278.12 151 272 151C272 152.32 272 153.64 272 155C276.29 155 280.58 155 285 155C285 156.65 285 158.3 285 160C280.71 160 276.42 160 272 160C272 161.32 272 162.64 272 164C277.94 164 283.88 164 290 164C290 166.64 290 169.28 290 172C281.09 172 272.18 172 263 172C263 162.76 263 153.52 263 144Z" fill="#0A162A"/>
<path d="M77 135C79.64 135 82.28 135 85 135C85.0198 135.595 85.0396 136.191 85.06 136.804C85.1551 139.495 85.2649 142.185 85.375 144.875C85.4059 145.812 85.4369 146.749 85.4687 147.715C85.5074 148.611 85.5461 149.507 85.5859 150.43C85.6173 151.257 85.6488 152.085 85.6811 152.937C85.826 155.22 85.826 155.22 88 157C91.63 157 95.26 157 99 157C99.33 149.74 99.66 142.48 100 135C102.64 135 105.28 135 108 135C108.117 138.187 108.188 141.374 108.25 144.562C108.3 145.905 108.3 145.905 108.352 147.275C108.442 153.435 107.648 156.988 104 162C99.7549 165.545 95.7242 166.67 90.207 166.379C84.9645 165.479 81.9248 163.271 78.8164 159C76.2691 154.328 76.5554 149.759 76.75 144.562C76.768 143.64 76.7861 142.718 76.8047 141.768C76.8514 139.511 76.917 137.256 77 135Z" fill="#EDEEF0"/>
<path d="M135 231C135.559 231.182 136.119 231.364 136.695 231.551C158.423 238.363 177.495 238.289 199 231C199 231.66 199 232.32 199 233C196.774 234.153 194.545 235.298 192.312 236.438C191.374 236.926 191.374 236.926 190.416 237.424C186.963 239.178 183.848 240.478 180 241C188.299 240.188 195.462 238.339 203.061 235.033C205.905 233.799 207.858 233 211 233C211 233.99 211 234.98 211 236C200.45 242.325 187.284 245.52 175 246C173.287 246.077 173.287 246.077 171.539 246.156C154.924 246.548 138.755 243.976 124 236C124 235.01 124 234.02 124 233C127.833 233.617 130.929 234.798 134.438 236.438C141.148 239.329 147.768 240.283 155 241C154.31 240.769 153.621 240.539 152.91 240.301C146.541 238.09 140.774 235.479 135 232C135 231.67 135 231.34 135 231Z" fill="#47A8D0"/>
<path d="M170 135C172.31 135 174.62 135 177 135C177.022 135.84 177.022 135.84 177.044 136.697C177.119 139.236 177.215 141.774 177.313 144.312C177.335 145.194 177.358 146.075 177.381 146.982C177.416 147.83 177.452 148.678 177.488 149.551C177.514 150.331 177.541 151.111 177.568 151.915C178.1 154.483 178.956 155.402 181 157C182.949 157.398 182.949 157.398 185 157.25C186.021 157.227 186.021 157.227 187.063 157.203C189.216 157.048 189.216 157.048 192 156C193.147 153.707 193.197 152.201 193.316 149.648C193.358 148.798 193.4 147.947 193.443 147.07C193.483 146.181 193.522 145.291 193.563 144.375C193.606 143.478 193.649 142.581 193.693 141.656C193.8 139.438 193.902 137.219 194 135C196.31 135 198.62 135 201 135C201.117 138.187 201.188 141.374 201.25 144.562C201.3 145.905 201.3 145.905 201.352 147.275C201.442 153.426 200.69 157.019 197 162C193.572 164.82 189.85 165.879 185.5 166.5C181.148 165.878 177.355 164.933 174 162C169.927 156.211 169.474 150.908 169.75 144C169.768 143.13 169.786 142.26 169.805 141.363C169.851 139.242 169.923 137.121 170 135Z" fill="#F4F5F6"/>
<path d="M117 201C117.99 201 118.98 201 120 201C120.33 202.65 120.66 204.3 121 206C121.949 206.062 122.897 206.124 123.875 206.188C124.906 206.456 125.938 206.724 127 207C128.375 209.562 128.375 209.562 129 212C129 210.02 129 208.04 129 206C131.647 204.539 132.894 204 136 204C136 203.01 136 202.02 136 201C136.99 201.33 137.98 201.66 139 202C140.55 202.087 142.103 202.118 143.655 202.114C144.596 202.113 145.537 202.113 146.506 202.113C148.025 202.106 148.025 202.106 149.574 202.098C150.613 202.096 151.652 202.095 152.723 202.093C156.044 202.088 159.366 202.075 162.688 202.062C164.938 202.057 167.189 202.053 169.439 202.049C174.96 202.038 180.48 202.021 186 202C186 202.66 186 203.32 186 204C180.39 203.67 174.78 203.34 169 203C169 210.26 169 217.52 169 225C168.01 225 167.02 225 166 225C166 217.74 166 210.48 166 203C157.544 203.551 149.331 204.454 141 206C143.154 211.797 145.322 217.008 149 222C137.478 220.073 137.478 220.073 132 218C132.33 219.32 132.66 220.64 133 222C129.529 220.78 127.564 219.564 125 217C123.342 216.312 121.675 215.644 120 215C119.34 214.34 118.68 213.68 118 213C118.165 211.907 118.33 210.814 118.5 209.688C119.014 205.895 118.716 204.331 117 201Z" fill="#0B507D"/>
<path d="M166 203C166 209.93 166 216.86 166 224C161.38 224 156.76 224 152 224C153.98 226.31 155.96 228.62 158 231C153.967 229.992 153.028 229.438 150.25 226.625C149.636 226.019 149.023 225.413 148.391 224.789C147 223 147 223 147 220C145.548 217.411 143.933 214.959 142.312 212.473C141 210 141 210 141 206C149.562 203.408 157.057 202.708 166 203Z" fill="#125C8B"/>
<path d="M120 197C129.188 196.977 138.376 196.959 147.565 196.948C151.831 196.943 156.097 196.936 160.364 196.924C164.481 196.914 168.598 196.908 172.716 196.905C174.286 196.903 175.857 196.9 177.428 196.894C179.628 196.887 181.828 196.886 184.028 196.886C185.907 196.883 185.907 196.883 187.824 196.88C192.769 197.067 192.769 197.067 195 198C195.495 199.485 195.495 199.485 196 201C194.302 202.698 192.12 202.186 189.793 202.237C188.682 202.263 187.571 202.29 186.426 202.317C185.215 202.34 184.005 202.363 182.758 202.387C181.523 202.412 180.289 202.438 179.017 202.464C176.399 202.516 173.781 202.565 171.164 202.612C168.475 202.661 165.786 202.716 163.097 202.778C159.234 202.866 155.371 202.941 151.508 203.012C149.698 203.055 149.698 203.055 147.852 203.1C146.735 203.117 145.617 203.134 144.465 203.151C143.48 203.17 142.495 203.189 141.48 203.209C139 203 139 203 136 201C136 201.99 136 202.98 136 204C133.69 204.66 131.38 205.32 129 206C129.33 208.64 129.66 211.28 130 214C127.64 211.64 127.509 210.221 127 207C124.03 206.505 124.03 206.505 121 206C120.67 203.03 120.34 200.06 120 197Z" fill="#051B35"/>
<path d="M40 144C48.58 144 57.16 144 66 144C66 146.64 66 149.28 66 152C60.39 152 54.78 152 49 152C49 153.65 49 155.3 49 157C52.63 157 56.26 157 60 157C60 158.98 60 160.96 60 163C56.04 163 52.08 163 48 163C48 165.97 48 168.94 48 172C45.36 172 42.72 172 40 172C40 162.76 40 153.52 40 144Z" fill="#081429"/>
<path d="M161 71C159.268 71.9282 159.268 71.9282 157.5 72.875C149.965 77.5777 145.044 85.2486 141 93C140.01 92.67 139.02 92.34 138 92C137.67 91.01 137.34 90.02 137 89C132.997 88.9082 132.997 88.9082 129 89C128.67 89.33 128.34 89.66 128 90C129.98 90.99 131.96 91.98 134 93C133.67 93.66 133.34 94.32 133 95C132.432 94.8956 131.863 94.7912 131.277 94.6836C128.606 94.4026 126.623 94.365 124 95C121.129 97.6684 119.052 100.674 117 104C116.67 103.34 116.34 102.68 116 102C116.996 99.6172 116.996 99.6172 118.438 96.875C118.911 95.9649 119.384 95.0549 119.871 94.1172C120.43 93.0692 120.43 93.0692 121 92C120.01 91.34 119.02 90.68 118 90C118.33 89.01 118.66 88.02 119 87C120.083 87.1238 120.083 87.1238 121.188 87.25C124.967 86.9141 126.266 85.5975 129 83C129.804 81.9894 130.609 80.9788 131.438 79.9375C136.19 74.4891 140.662 73.7958 147.535 73.3203C149.962 73.0049 151.68 72.4231 153.875 71.375C157.196 69.9138 157.758 69.9474 161 71Z" fill="#F4FBFC"/>
<path d="M213 92C213.66 92 214.32 92 215 92C215 92.66 215 93.32 215 94C215.619 94.2681 216.238 94.5362 216.875 94.8125C219.594 96.3319 220.704 98.0568 221.633 101.016C221.876 102.122 221.876 102.122 222.125 103.25C222.293 103.977 222.46 104.704 222.633 105.453C223.087 108.605 223 111.815 223 115C216.73 115 210.46 115 204 115C203.34 112.422 202.68 109.844 202 107.188C201.791 106.379 201.582 105.571 201.367 104.739C200.612 101.751 200 99.0933 200 96C205.445 95.01 205.445 95.01 211 94C215.343 98.6648 217.528 104.216 220 110C218.639 105.452 217.243 101.162 214.812 97.0625C213 94 213 94 213 92Z" fill="#145A87"/>
<path d="M121 136C131.89 136 142.78 136 154 136C154 137.98 154 139.96 154 142C149.71 142 145.42 142 141 142C141 149.59 141 157.18 141 165C138.69 165 136.38 165 134 165C134 157.41 134 149.82 134 142C129.71 142 125.42 142 121 142C121 140.02 121 138.04 121 136Z" fill="#FDFDFD"/>
<path d="M169 79C176.209 79.365 182.942 79.7266 189 84C191.953 87.4299 194 90.4131 194 95C185.552 96.5261 177.586 97.2069 169 97C169 91.06 169 85.12 169 79Z" fill="#155C8B"/>
<path d="M165 79C165 84.94 165 90.88 165 97C156.348 97.1713 148.44 96.9292 140 95C142.62 88.2685 145.124 83.7715 151.84 80.7461C156.163 79.253 160.437 79 165 79Z" fill="#17608F"/>
<path d="M171 22C174.175 23.5447 176.655 25.3568 179 28C180.062 31.3125 180.062 31.3125 180 34C179 35 179 35 176.437 35.0625C175.633 35.0419 174.829 35.0212 174 35C173.711 34.3606 173.422 33.7212 173.125 33.0625C172.172 30.8479 172.172 30.8479 170 30C166.435 29.6125 164.615 29.6056 161.562 31.5625C159.68 34.0173 159.68 34.0173 160 37.5625C160.636 41.0572 160.636 41.0572 163.062 42.5C163.702 42.995 164.341 43.49 165 44C165.25 47.6875 165.25 47.6875 165 51C159.314 49.6776 157.322 47.5565 154 43C152.016 39.0327 152.452 34.3132 153 30C156.559 22.7548 163.483 20.5998 171 22Z" fill="#50C6E8"/>
<path d="M164 65C164 65.99 164 66.98 164 68C165.217 67.9587 166.434 67.9175 167.688 67.875C171.219 67.8625 173.8 68.4 177 70C177 70.66 177 71.32 177 72C178.693 73.4085 178.693 73.4085 180.812 74.8125C184.127 77.1998 186.228 79.2341 188 83C183.658 82.3204 179.403 81.4415 175.125 80.4375C173.973 80.1681 172.82 79.8987 171.633 79.6211C170.764 79.4161 169.895 79.2112 169 79C169 76.36 169 73.72 169 71C168.01 71 167.02 71 166 71C166 79.58 166 88.16 166 97C165.67 97 165.34 97 165 97C165 91.06 165 85.12 165 79C161.968 79.6806 161.968 79.6806 158.875 80.375C157.738 80.6302 156.601 80.8855 155.43 81.1484C152.216 81.9464 149.124 82.9079 146 84C149.695 78.769 153.123 73.9384 159 71C158.67 70.01 158.34 69.02 158 68C159.393 65.2145 160.989 65 164 65Z" fill="#5AC8EC"/>
<path d="M253 51.9999C255.868 52.8764 256.858 53.8335 258.813 56.1249C260.752 60.8201 259.892 64.8256 258 69.4374C254.686 72.0261 251.134 72.4366 247 71.9999C243.87 70.3537 241.602 68.2031 240 64.9999C239.586 60.3458 240.189 57.7475 243 53.9999C246.701 51.5324 248.622 51.6927 253 51.9999Z" fill="#C0C2C5"/>
<path d="M127.562 94.1875C131 95 131 95 134 96C133.712 97.6673 133.419 99.3338 133.125 101C132.963 101.928 132.8 102.856 132.633 103.812C131.887 107.57 130.929 111.283 130 115C124.06 115 118.12 115 112 115C113.439 110.684 114.746 107.291 116.875 103.375C117.614 101.994 117.614 101.994 118.367 100.586C122.573 93.9249 122.573 93.9249 127.562 94.1875Z" fill="#1F6794"/>
<path d="M85.582 52.5195C88 52.9999 88 52.9999 91.125 55.0624C93.5026 58.7874 93.6871 60.6487 93 64.9999C89.9231 70.5384 89.9231 70.5384 87 71.9999C81.7312 72.5987 79.1154 71.2539 75 67.9999C73.3891 64.778 73.5525 61.4931 74 57.9999C76.5263 52.488 79.9842 52.2135 85.582 52.5195Z" fill="#EDEFF1"/>
<path d="M76 201C80.1652 200.708 84.3277 200.531 88.5 200.375C90.2596 200.249 90.2596 200.249 92.0547 200.121C100.661 199.879 100.661 199.879 104.629 203.2C110 209.781 110 209.781 110 213C108.742 213.021 107.484 213.041 106.188 213.063C105.48 213.074 104.772 213.086 104.043 213.098C102 213 102 213 99 212C99 212.99 99 213.98 99 215C97.125 214.688 97.125 214.688 95 214C94.34 213.01 93.68 212.02 93 211C89.7392 210.209 86.4819 209.729 83.1641 209.234C78.6878 207.488 78.0001 205.276 76 201Z" fill="#85A6B8"/>
<path d="M255 228C258.702 231.229 259.797 232.716 260.563 237.562C259.914 241.524 258.812 243.188 256 246C253.147 247.427 251.165 247.31 248 247C245.3 245.2 243.458 243.916 242 241C241.606 236.818 241.55 234.69 243.875 231.125C247.432 227.568 250.018 227.409 255 228Z" fill="#F0F2F3"/>
<path d="M244.375 200.5C246.051 200.554 246.051 200.554 247.762 200.609C250.511 200.703 253.254 200.835 256 201C255.125 205.75 255.125 205.75 254 208C251.383 208.852 251.383 208.852 248.125 209.625C247.055 209.885 245.985 210.146 244.883 210.414C242 211 242 211 239 211C238.34 212.32 237.68 213.64 237 215C236.34 215 235.68 215 235 215C235 214.01 235 213.02 235 212C234.01 212.33 233.02 212.66 232 213C230.606 213.067 229.208 213.085 227.812 213.063C225.925 213.032 225.925 213.032 224 213C224.657 211.662 225.326 210.33 226 209C226.354 208.299 226.708 207.599 227.073 206.877C231.499 199.624 236.411 200.012 244.375 200.5Z" fill="#84A5B7"/>
<path d="M129 88.0001C131.383 87.7071 131.383 87.7071 134.125 87.8126C135.035 87.8396 135.945 87.8667 136.883 87.8946C137.581 87.9294 138.28 87.9642 139 88.0001C139.495 91.4651 139.495 91.4651 140 95.0001C141.32 95.3301 142.64 95.6601 144 96.0001C144 96.6601 144 97.3201 144 98.0001C142.02 98.3301 140.04 98.6601 138 99.0001C137.734 99.9411 137.469 100.882 137.195 101.852C136.842 103.097 136.489 104.342 136.125 105.625C135.777 106.855 135.429 108.085 135.07 109.352C134.12 112.59 133.067 115.798 132 119C122.43 118.67 112.86 118.34 103 118C103 117.01 103 116.02 103 115C111.91 115 120.82 115 130 115C130.33 112.36 130.66 109.72 131 107C131.476 104.989 131.991 102.986 132.562 101C132.832 100.051 133.101 99.1026 133.379 98.1251C133.584 97.4238 133.789 96.7226 134 96.0001C133.01 95.6701 132.02 95.3401 131 95.0001C131.66 94.6701 132.32 94.3401 133 94.0001C131.02 93.0101 129.04 92.0201 127 91.0001C127.66 90.0101 128.32 89.0201 129 88.0001Z" fill="#EBF5F8"/>
<path d="M136 201C136.99 201.33 137.98 201.66 139 202C140.55 202.087 142.103 202.118 143.655 202.114C144.596 202.113 145.537 202.113 146.506 202.113C148.025 202.106 148.025 202.106 149.574 202.098C150.613 202.096 151.652 202.095 152.723 202.093C156.044 202.088 159.366 202.075 162.688 202.062C164.938 202.057 167.189 202.053 169.439 202.049C174.96 202.038 180.48 202.021 186 202C186 202.66 186 203.32 186 204C180.39 203.67 174.78 203.34 169 203C169 210.26 169 217.52 169 225C168.01 225 167.02 225 166 225C166 217.74 166 210.48 166 203C157.544 203.551 149.331 204.454 141 206C143.154 211.797 145.322 217.008 149 222C146.101 221.689 145.088 221.093 143.062 218.938C140.562 215.376 138.253 211.721 136 208C134.02 208.33 132.04 208.66 130 209C129.67 208.01 129.34 207.02 129 206C131.647 204.539 132.894 204 136 204C136 203.01 136 202.02 136 201Z" fill="#56C5E7"/>
<path d="M167.062 28.4375C170.608 29.1165 171.829 30.1616 174 33C174 33.66 174 34.32 174 35C177.931 34.4255 177.931 34.4255 181 32C181.497 37.9682 180.309 41.9856 177 47C174.372 49.5479 173.693 50 170 50C169.973 48.3959 169.954 46.7917 169.938 45.1875C169.926 44.2942 169.914 43.4009 169.902 42.4805C170 40 170 40 171 37C167.455 38.3976 167.455 38.3976 164 40C163.01 39.67 162.02 39.34 161 39C160.67 39.66 160.34 40.32 160 41C159.188 37.8125 159.188 37.8125 159 34C161.431 30.5381 162.878 29.206 167.062 28.4375Z" fill="#0B2640"/>
<path d="M135 231C135.559 231.182 136.119 231.364 136.695 231.551C158.423 238.363 177.495 238.289 199 231C199 231.66 199 232.32 199 233C196.816 234.133 194.628 235.256 192.438 236.375C191.828 236.692 191.219 237.009 190.592 237.336C179.498 242.971 165.175 244.502 153.055 241.055C149.908 239.872 146.975 238.561 144 237C143.081 236.523 142.162 236.046 141.215 235.555C139.11 234.416 137.045 233.242 135 232C135 231.67 135 231.34 135 231Z" fill="#8DA6B4"/>
<path d="M187 34C192.104 34.4183 196.661 35.1259 201.562 36.625C205.17 37.6876 207.788 38.1402 211.5 37.5C215 37 215 37 216.938 38.25C218 40 218 40 219 43C220.602 44.3284 220.602 44.3284 222.598 45.4805C223.316 45.922 224.035 46.3635 224.775 46.8184C225.53 47.2702 226.285 47.722 227.062 48.1875C227.821 48.6509 228.58 49.1143 229.361 49.5918C231.236 50.7357 233.116 51.8713 235 53C234.505 54.485 234.505 54.485 234 56C232.926 55.3387 231.852 54.6774 230.746 53.9961C229.31 53.1422 227.874 52.2894 226.438 51.4375C225.733 50.9999 225.029 50.5622 224.303 50.1113C219.408 47.2465 216.718 46.7059 211 48C208.352 46.2347 208.023 45.069 207 42C204.993 41.1162 204.993 41.1162 202.527 40.6133C201.179 40.2894 201.179 40.2894 199.803 39.959C198.857 39.7456 197.912 39.5323 196.938 39.3125C195.988 39.0876 195.039 38.8626 194.061 38.6309C191.709 38.0756 189.356 37.5326 187 37C187 36.01 187 35.02 187 34Z" fill="#F1F3F4"/>
<path d="M146 35C146 35.66 146 36.32 146 37C144.428 37.4157 144.428 37.4157 142.824 37.8398C141.445 38.2056 140.066 38.5715 138.688 38.9375C137.652 39.2111 137.652 39.2111 136.596 39.4902C133.701 40.2593 130.842 41.0526 128 42C127.732 42.825 127.464 43.65 127.188 44.5C126.796 45.325 126.404 46.15 126 47C122.876 47.9719 120.849 48.2744 117.715 47.2617C113.795 46.8837 111.472 48.7986 108.375 50.9375C102.352 55 102.352 55 99 55C100.135 51.5961 100.571 51.372 103.527 49.6601C104.237 49.2366 104.947 48.8132 105.678 48.3769C107.18 47.5033 108.682 46.6309 110.186 45.7597C110.896 45.335 111.607 44.9102 112.34 44.4726C112.993 44.0937 113.647 43.7148 114.32 43.3244C116.149 42.0764 116.149 42.0764 117.049 39.8962C117.363 39.2704 117.677 38.6447 118 38C120.878 37.1866 122.999 36.6952 125.898 37.5781C128.617 38.1239 130.155 37.4923 132.75 36.5625C137.403 35.0436 141.13 34.7294 146 35Z" fill="#E9EBEE"/>
<path d="M86 229C88.5881 231.254 88.9424 232.605 89.4375 236C89 239 89 239 87.5 241.375C83.9806 243.663 81.0857 243.678 77 243C74.5 241.875 74.5 241.875 73 240C72.3202 236.091 72.663 234.505 74.875 231.188C78.6059 227.347 80.8697 227.83 86 229Z" fill="#63CFEA"/>
<path d="M46.5625 100.438C50 101 50 101 52.375 102.625C54.3584 105.524 54.8541 107.499 55 111C54.2173 113.562 53.4472 114.639 51.375 116.312C47.7796 117.353 44.5802 117.041 41 116C38.3808 113.79 38.073 112.429 37.5 109.062C38.3933 103.591 41.1816 101.287 46.5625 100.438ZM45 104C44.67 104.66 44.34 105.32 44 106C45.65 106 47.3 106 49 106C48.67 105.34 48.34 104.68 48 104C47.01 104 46.02 104 45 104ZM49 106C50 108 50 108 50 108L49 106ZM42 107C43 111 43 111 43 111L42 107ZM50 108C51 110 51 110 51 110L50 108ZM49 110C50 112 50 112 50 112L49 110Z" fill="#C4C9D0"/>
<path d="M118 90C119.32 90.66 120.64 91.32 122 92C121.651 92.6639 121.301 93.3277 120.941 94.0117C120.486 94.8947 120.031 95.7777 119.562 96.6875C119.11 97.5576 118.658 98.4277 118.191 99.3242C117.033 101.927 116.535 104.218 116 107C114.804 109.752 113.398 112.34 112 115C109.03 115 106.06 115 103 115C107.801 98.4624 107.801 98.4624 114.191 94.7148C114.788 94.4789 115.385 94.243 116 94C116 93.34 116 92.68 116 92C116.66 92 117.32 92 118 92C118 91.34 118 90.68 118 90Z" fill="#63CFF2"/>
<path d="M196 98C196.697 99.621 197.382 101.247 198.062 102.875C198.445 103.78 198.828 104.685 199.223 105.617C200 108 200 108 199 110C198.449 109.273 198.449 109.273 197.887 108.532C195.212 106.36 193.217 106.568 189.801 106.488C187.988 106.435 187.988 106.435 186.139 106.381C184.876 106.358 183.613 106.336 182.312 106.312C180.401 106.261 180.401 106.261 178.451 106.209C175.301 106.126 172.151 106.057 169 106C169 104.35 169 102.7 169 101C169.56 100.945 170.12 100.889 170.697 100.832C173.236 100.579 175.774 100.321 178.312 100.062C179.194 99.9755 180.075 99.8884 180.982 99.7988C182.254 99.6683 182.254 99.6683 183.551 99.5351C184.721 99.4173 184.721 99.4173 185.915 99.2971C195.173 97.9776 195.173 97.9776 196 98Z" fill="#195684"/>
<path d="M138 98C151.365 99.485 151.365 99.485 165 101C165 102.65 165 104.3 165 106C163.842 106.03 163.842 106.03 162.661 106.06C159.169 106.155 155.679 106.265 152.188 106.375C150.973 106.406 149.758 106.437 148.506 106.469C146.761 106.527 146.761 106.527 144.98 106.586C143.907 106.617 142.833 106.649 141.727 106.681C138.784 106.816 138.784 106.816 136 109C135.34 109.99 134.68 110.98 134 112C134.657 106.748 136.04 103.227 138 98Z" fill="#165380"/>
<path d="M206 206C213.875 206.875 213.875 206.875 215 208C215.562 210.75 215.562 210.75 215 214C212.575 216.113 209.842 217.519 207 219C206.01 219.598 205.02 220.196 204 220.812C203.34 221.204 202.68 221.596 202 222C203.372 219.046 204.989 216.56 207 214C206.34 213.34 205.68 212.68 205 212C204.546 212.743 204.093 213.485 203.625 214.25C200.06 217.985 195.964 219.668 191 221C190.34 220.67 189.68 220.34 189 220C189.577 219.34 190.155 218.68 190.75 218C193.389 214.482 195.116 210.969 197 207C199.97 207.33 202.94 207.66 206 208C206 207.34 206 206.68 206 206Z" fill="#062D51"/>
<path d="M218 142C220.625 141.946 223.249 141.906 225.875 141.875C226.621 141.858 227.368 141.842 228.137 141.824C230.092 141.807 232.047 141.897 234 142C236 144 236 144 236.312 146.438C236 149 236 149 234.961 150.648C231.945 152.727 228.833 152.316 225.312 152.188C224.26 152.167 224.26 152.167 223.186 152.147C221.457 152.111 219.728 152.057 218 152C218 148.7 218 145.4 218 142Z" fill="#101C31"/>
<path d="M196.09 76.8673C198 77.0001 198 77.0001 200 78.0001C200.981 79.734 201.96 81.4694 202.914 83.2188C204.298 85.4887 206.095 87.1628 208 89.0001C208 89.6601 208 90.3201 208 91.0001C203.05 92.4851 203.05 92.4851 198 94.0001C196.873 92.0843 195.749 90.1674 194.625 88.2501C193.999 87.1827 193.372 86.1154 192.727 85.0157C191.402 82.7027 190.154 80.4006 189 78.0001C190.899 76.1012 193.572 76.8764 196.09 76.8673Z" fill="#196292"/>
<path d="M149 57.0001C148.67 57.9901 148.34 58.9801 148 60.0001C145.478 60.9992 143.025 61.8345 140.438 62.6251C130.537 65.8649 121 70.4317 112.676 76.7696C111 78.0001 111 78.0001 109 78.0001C109.36 75.3706 109.775 74.2144 111.723 72.3595C122.415 65.0052 135.667 56.4668 149 57.0001Z" fill="#40A5D1"/>
<path d="M281 73.9999C283.856 76.3029 283.982 77.8544 284.437 81.4999C284 84.9999 284 84.9999 282.437 87.4999C280 88.9999 280 88.9999 276.437 88.9999C273 87.9999 273 87.9999 271.062 86.3124C269.662 83.2639 269.516 81.3206 270 77.9999C272.933 73.5413 275.877 73.2548 281 73.9999ZM275 77.9999C274.67 79.9799 274.34 81.9599 274 83.9999C276.475 84.4949 276.475 84.4949 279 84.9999C278.424 82.6142 277.778 80.3331 277 77.9999C276.34 77.9999 275.68 77.9999 275 77.9999Z" fill="#479CC4"/>
<path d="M169 28C169 28.33 169 28.66 169 29C168.072 29.2681 167.144 29.5362 166.188 29.8125C162.396 31.0962 162.396 31.0962 160 34C159.922 37.5402 159.922 37.5402 161 41C162.021 41.7425 162.021 41.7425 163.063 42.5C164.022 43.2425 164.022 43.2425 165 44C165.25 47.6875 165.25 47.6875 165 51C159.314 49.6776 157.322 47.5565 154 43C152.678 40.3554 152.903 38.3224 152.938 35.375C152.947 34.3721 152.956 33.3692 152.965 32.3359C152.976 31.5651 152.988 30.7942 153 30C153.66 31.32 154.32 32.64 155 34C155.598 33.2162 156.196 32.4325 156.813 31.625C160.867 26.7594 163.007 26.8692 169 28Z" fill="#65C6E8"/>
<path d="M186 57C201.257 58.4618 213.032 65.9466 225 75C224.505 76.485 224.505 76.485 224 78C220.82 76.5095 217.861 74.718 214.873 72.8772C205.674 67.2235 196.669 62.2142 186 60C186 59.01 186 58.02 186 57Z" fill="#3E9CCB"/>
<path d="M270 91.0001C272 93.0001 272 93.0001 272.188 96.0001C272 99.0001 272 99.0001 271 101C271.579 102.917 272.238 104.811 272.938 106.688C274.595 111.422 275.452 115.023 275 120C274.34 120 273.68 120 273 120C272.163 117.209 271.331 114.418 270.5 111.625C270.262 110.831 270.023 110.037 269.777 109.219C269.552 108.458 269.326 107.698 269.094 106.914C268.884 106.212 268.675 105.511 268.459 104.788C268 103 268 103 268 101C265.03 100.505 265.03 100.505 262 100C260.674 94.5754 260.674 94.5754 262.063 92.1251C264.821 90.5234 266.87 90.6671 270 91.0001Z" fill="#F0F2F4"/>
<path d="M55 75C55.99 75 56.98 75 58 75C58.6187 75.7837 59.2375 76.5675 59.875 77.375C62.1645 80.2032 63.61 80.9006 67 82C68 83 68 83 68.0625 85.5625C68.0419 86.3669 68.0213 87.1712 68 88C66.68 88.33 65.36 88.66 64 89C63.67 88.01 63.34 87.02 63 86C63.33 85.34 63.66 84.68 64 84C60.3025 85.2325 59.3777 87.0087 57 90C56.34 90 55.68 90 55 90C53.9936 88.3372 52.9941 86.6702 52 85C51.01 84.34 50.02 83.68 49 83C49 82.34 49 81.68 49 81C50.65 79.6461 52.3174 78.3132 54 77C54.33 76.34 54.66 75.68 55 75ZM56 79C56 79.66 56 80.32 56 81C56.66 80.67 57.32 80.34 58 80C57.34 79.67 56.68 79.34 56 79ZM56 83C56.33 83.99 56.66 84.98 57 86C57.33 85.01 57.66 84.02 58 83C57.34 83 56.68 83 56 83Z" fill="#A0A8B2"/>
<path d="M181 114C184.96 114 188.92 114 193 114C193 114.99 193 115.98 193 117C190.03 117 187.06 117 184 117C184 117.99 184 118.98 184 120C185.98 120 187.96 120 190 120C190 120.99 190 121.98 190 123C188.02 123 186.04 123 184 123C184 124.32 184 125.64 184 127C186.97 127 189.94 127 193 127C193 127.99 193 128.98 193 130C189.04 130 185.08 130 181 130C181 124.72 181 119.44 181 114Z" fill="#ADB0B6"/>
<path d="M201 80C205.493 80.6876 206.85 83.009 209.438 86.5039C211.121 88.4611 211.121 88.4611 215 88C215 89.32 215 90.64 215 92C214.34 92 213.68 92 213 92C213.589 93.1086 214.178 94.2172 214.785 95.3594C215.545 96.8226 216.304 98.2861 217.062 99.75C217.647 100.844 217.647 100.844 218.244 101.961C218.608 102.67 218.972 103.379 219.348 104.109C219.858 105.083 219.858 105.083 220.379 106.077C221.136 108.42 220.788 109.705 220 112C219.469 110.857 218.938 109.713 218.391 108.535C217.678 107.044 216.964 105.553 216.25 104.062C215.728 102.93 215.728 102.93 215.195 101.775C214.847 101.057 214.499 100.338 214.141 99.5977C213.826 98.9326 213.512 98.2675 213.188 97.5823C212.101 95.8383 212.101 95.8383 210.054 95.2751C207.85 94.9336 207.85 94.9336 205 95C205 93.68 205 92.36 205 91C205.99 91 206.98 91 208 91C207.495 90.3735 206.989 89.747 206.469 89.1016C205.819 88.2843 205.169 87.467 204.5 86.625C203.525 85.4068 203.525 85.4068 202.531 84.1641C201 82 201 82 201 80Z" fill="#CDE4ED"/>
<path d="M180 32C180.33 32 180.66 32 181 32C181.497 37.9682 180.309 41.9856 177 47C174.372 49.5479 173.693 50 170 50C169.973 48.3959 169.954 46.7917 169.938 45.1875C169.926 44.2942 169.914 43.4009 169.902 42.4805C170 40 170 40 171 37C171.66 37 172.32 37 173 37C173 37.99 173 38.98 173 40C173.66 40 174.32 40 175 40C174.67 38.35 174.34 36.7 174 35C174.804 34.8762 175.609 34.7525 176.438 34.625C177.283 34.4188 178.129 34.2125 179 34C179.33 33.34 179.66 32.68 180 32Z" fill="#1A5D87"/>
<path d="M150 202C161.88 202 173.76 202 186 202C186 202.66 186 203.32 186 204C180.39 203.67 174.78 203.34 169 203C169 210.26 169 217.52 169 225C168.01 225 167.02 225 166 225C166 217.74 166 210.48 166 203C157.585 203.495 157.585 203.495 149 204C149.33 203.34 149.66 202.68 150 202Z" fill="#5DCFF1"/>
<path d="M285 96C285.66 96.33 286.32 96.66 287 97C287.407 99.3216 287.744 101.657 288 104C290.97 104.495 290.97 104.495 294 105C294 105.99 294 106.98 294 108C291.69 108 289.38 108 287 108C287 111.3 287 114.6 287 118C286.01 118 285.02 118 284 118C284 114.7 284 111.4 284 108C281.69 108 279.38 108 277 108C277 107.01 277 106.02 277 105C279.31 105 281.62 105 284 105C283.979 103.701 283.959 102.401 283.938 101.062C283.916 99.7083 283.929 98.3524 284 97C284.33 96.67 284.66 96.34 285 96Z" fill="#DDE4EA"/>
<path d="M198 202C198 202.66 198 203.32 198 204C200.97 204.99 203.94 205.98 207 207C206.67 207.66 206.34 208.32 206 209C203.36 208.67 200.72 208.34 198 208C197.613 208.687 197.227 209.374 196.828 210.082C196.047 211.434 196.047 211.434 195.25 212.812C194.74 213.706 194.229 214.599 193.703 215.52C192.014 217.979 190.478 219.378 188 221C187.34 220.67 186.68 220.34 186 220C186.577 219.361 187.155 218.721 187.75 218.062C190.529 214.28 192.229 210.325 194 206C191.03 205.505 191.03 205.505 188 205C188.33 204.34 188.66 203.68 189 203C192.02 202.451 194.926 202 198 202Z" fill="#53C0E2"/>
<path d="M81 227C84.8114 227.266 86.7688 227.829 89.875 230.125C92 233 92 233 92.5625 236.438C91.9102 240.569 90.6148 242.77 88 246C85.1908 247.405 83.1119 247.249 80 247C77.625 245.5 77.625 245.5 76 244C76.33 243.34 76.66 242.68 77 242C78.2581 242.062 79.5163 242.124 80.8125 242.188C84.0618 242.171 84.0618 242.171 87 240.875C88.5041 238.055 88.4491 236.144 88 233C85.8809 230.369 83.8198 228.88 81 227Z" fill="#07436C"/>
<path d="M95 90C95.99 90.33 96.98 90.66 98 91C98 91.99 98 92.98 98 94C97.4277 94.5517 96.8553 95.1034 96.2656 95.6719C93.2074 98.8145 91.6244 102.321 89.75 106.25C89.2047 107.368 89.2047 107.368 88.6484 108.508C87.7583 110.335 86.8781 112.167 86 114C85.01 113.67 84.02 113.34 83 113C85.5027 104.393 89.0721 96.8062 95 90Z" fill="#44AFD7"/>
<path d="M117 201C117.99 201 118.98 201 120 201C120.33 202.65 120.66 204.3 121 206C123.97 206.495 123.97 206.495 127 207C128.328 212.434 128.328 212.434 126.875 214.938C125 216 125 216 122.438 215.812C120 215 120 215 118 213C118.165 211.907 118.33 210.814 118.5 209.688C119.014 205.895 118.716 204.331 117 201Z" fill="#EBEEF0"/>
<path d="M236 91C238.447 91.3841 239.736 91.7413 241.527 93.4961C245.239 98.6067 248.944 103.985 251 110C250.629 112.297 250.629 112.297 250 114C247 113 247 113 245.062 109.508C244.365 108.052 243.678 106.59 243 105.125C242.318 103.667 241.631 102.211 240.938 100.758C240.637 100.11 240.337 99.4613 240.027 98.7935C239.064 96.9138 239.064 96.9138 237.379 95.4526C236 94 236 94 236 91Z" fill="#43A4CE"/>
<path d="M84 229C87.875 230.75 87.875 230.75 89 233C89.3808 236.503 89.4025 238.363 87.5 241.375C83.759 243.807 81.4257 243.492 77 243C75 241.5 75 241.5 74 240C77.465 239.505 77.465 239.505 81 239C81.33 236.69 81.66 234.38 82 232C82.99 232 83.98 232 85 232C84.67 231.01 84.34 230.02 84 229Z" fill="#47BBDE"/>
<path d="M145 180C146.32 180 147.64 180 149 180C149.674 181.434 150.339 182.873 151 184.312C151.557 185.513 151.557 185.513 152.125 186.738C153 189 153 189 153 192C152.01 192 151.02 192 150 192C150 191.34 150 190.68 150 190C148.02 190 146.04 190 144 190C144 190.66 144 191.32 144 192C142.68 192 141.36 192 140 192C141.311 187.766 142.944 183.926 145 180Z" fill="#374153"/>
<path d="M161 114C161.99 114 162.98 114 164 114C164 116.31 164 118.62 164 121C166.64 121 169.28 121 172 121C172 118.69 172 116.38 172 114C172.66 114 173.32 114 174 114C174 118.95 174 123.9 174 129C173.34 129 172.68 129 172 129C172 127.02 172 125.04 172 123C169.03 123 166.06 123 163 123C163 125.31 163 127.62 163 130C162.34 130 161.68 130 161 130C161 124.72 161 119.44 161 114Z" fill="#EFF1F1"/>
<path d="M195 180C198.3 180 201.6 180 205 180C205 180.66 205 181.32 205 182C202.69 182 200.38 182 198 182C198 182.66 198 183.32 198 184C199.65 184 201.3 184 203 184C203 184.99 203 185.98 203 187C201.35 187 199.7 187 198 187C198 187.66 198 188.32 198 189C200.31 189 202.62 189 205 189C205 189.99 205 190.98 205 192C201.7 192 198.4 192 195 192C195 188.04 195 184.08 195 180Z" fill="#1A243A"/>
<path d="M164.562 179.938C165.697 179.958 166.831 179.979 168 180C168 180.99 168 181.98 168 183C166.35 182.67 164.7 182.34 163 182C163 182.66 163 183.32 163 184C165.97 184.495 165.97 184.495 169 185C169.625 187.375 169.625 187.375 170 190C168 192 168 192 165.062 192.312C162 192 162 192 160.125 190.5C159.754 190.005 159.382 189.51 159 189C162.01 188.066 162.867 187.956 166 189C166 188.34 166 187.68 166 187C163.03 186.505 163.03 186.505 160 186C159.957 184.334 159.959 182.666 160 181C161 180 161 180 164.562 179.938Z" fill="#1F2639"/>
<path d="M168 22.0001C168.33 23.3201 168.66 24.6401 169 26.0001C167.783 26.3919 166.566 26.7838 165.312 27.1876C161.256 28.6881 158.9 30.7587 156 34.0001C155.01 34.4951 155.01 34.4951 154 35.0001C153.625 31.8126 153.625 31.8126 154 28.0001C157.991 23.1347 161.942 21.8684 168 22.0001Z" fill="#F0F9FA"/>
<path d="M60 208C62 210 62 210 62.3125 213C62.1578 214.485 62.1578 214.485 62 216C59 218 59 218 56.4375 217.75C54 217 54 217 52 215C52.25 211.938 52.25 211.938 53 209C55.5128 207.744 57.217 207.791 60 208Z" fill="#D3DCE1"/>
<path d="M182.562 179.938C183.697 179.958 184.831 179.979 186 180C186 180.99 186 181.98 186 183C184.35 182.67 182.7 182.34 181 182C181 182.66 181 183.32 181 184C182.98 184.66 184.96 185.32 187 186C186.125 190.875 186.125 190.875 185 192C182.062 192.25 182.062 192.25 179 192C178.34 191.01 177.68 190.02 177 189C180.133 187.956 180.99 188.066 184 189C184 188.34 184 187.68 184 187C183.216 187.041 182.433 187.082 181.625 187.125C179 187 179 187 177 185C177.658 180.654 177.99 180.018 182.562 179.938Z" fill="#151A2F"/>
<path d="M81 57C84.625 57.375 84.625 57.375 88 58C89.3228 63.4114 89.3228 63.4114 87.9375 65.9375C85.0891 67.4995 83.065 66.7492 80 66C79.375 62.625 79.375 62.625 79 59C79.66 58.34 80.32 57.68 81 57Z" fill="#22283A"/>
<path d="M215 179C218.125 179.375 218.125 179.375 221 180C221 180.99 221 181.98 221 183C220.01 183.33 219.02 183.66 218 184C219.32 184.66 220.64 185.32 222 186C221.67 187.65 221.34 189.3 221 191C218.188 191.688 218.188 191.688 215 192C213.125 190.562 213.125 190.562 212 189C215.133 187.956 215.99 188.066 219 189C219 188.34 219 187.68 219 187C217.35 186.67 215.7 186.34 214 186C213.375 183.625 213.375 183.625 213 181C213.66 180.34 214.32 179.68 215 179Z" fill="#12182D"/>
<path d="M211.562 206.812C214 207 214 207 215 208C215.562 210.75 215.562 210.75 215 214C212.575 216.113 209.842 217.519 207 219C205.515 219.897 205.515 219.897 204 220.812C203.34 221.204 202.68 221.596 202 222C203.038 219.764 204.033 217.96 205.625 216.062C207.322 213.517 207.079 211.996 207 209C209 207 209 207 211.562 206.812Z" fill="#818890"/>
<path d="M142 114C146.29 114 150.58 114 155 114C155 114.99 155 115.98 155 117C153.68 117 152.36 117 151 117C151 121.29 151 125.58 151 130C150.01 130 149.02 130 148 130C148 125.71 148 121.42 148 117C146.02 117 144.04 117 142 117C142 116.01 142 115.02 142 114Z" fill="#BFC4C8"/>
<path d="M268 199C268.66 199 269.32 199 270 199C269.596 207.878 264.885 216.482 259 223C258.34 223 257.68 223 257 223C257.618 220.193 258.476 217.81 259.777 215.25C260.126 214.559 260.475 213.868 260.834 213.156C261.198 212.445 261.562 211.733 261.938 211C262.478 209.933 262.478 209.933 263.029 208.844C263.703 207.515 264.377 206.186 265.054 204.859C266.045 202.911 267.024 200.956 268 199Z" fill="#B8C4CD"/>
<path d="M138 17.0001C138.66 17.6601 139.32 18.3201 140 19.0001C139.625 22.6251 139.625 22.6251 139 26.0001C136.688 26.6251 136.688 26.6251 134 27.0001C133.01 26.3401 132.02 25.6801 131 25.0001C130.812 21.3751 130.812 21.3751 131 18.0001C133.513 16.7437 135.217 16.7914 138 17.0001Z" fill="#4596B6"/>
<path d="M265 178C273.25 178 281.5 178 290 178C290 178.99 290 179.98 290 181C281.75 181 273.5 181 265 181C265 180.01 265 179.02 265 178Z" fill="#38B1D9"/>
<path d="M64 199C64.66 199 65.32 199 66 199C66.33 200.32 66.66 201.64 67 203C67.66 203 68.32 203 69 203C69.1586 203.557 69.3171 204.114 69.4805 204.688C71.0355 209.774 72.9669 213.908 76.0117 218.273C77 220 77 220 77 223C73.6929 222.019 72.4755 220.424 70.8945 217.516C70.188 216.1 69.4944 214.678 68.8125 213.25C68.4574 212.546 68.1022 211.842 67.7363 211.117C65.7599 207.082 64.4766 203.524 64 199Z" fill="#D0D6DD"/>
<path d="M117 180C117 180.99 117 181.98 117 183C114.509 184.245 113.589 183.777 111 183C111.33 184.65 111.66 186.3 112 188C113.65 188 115.3 188 117 188C117 188.99 117 189.98 117 191C114.25 191.75 114.25 191.75 111 192C108.625 190.375 108.625 190.375 107 188C106.509 185.125 106.586 183.705 108.062 181.187C110.993 179.391 113.647 179.81 117 180Z" fill="#2C3446"/>
<path d="M40 178C47.59 178 55.18 178 63 178C63 178.99 63 179.98 63 181C55.41 181 47.82 181 40 181C40 180.01 40 179.02 40 178Z" fill="#3DAFDB"/>
<path d="M149 56.9999C148.67 57.9899 148.34 58.9799 148 59.9999C145.299 61.0411 142.712 61.9032 139.938 62.6874C139.179 62.9124 138.42 63.1373 137.639 63.3691C135.762 63.9237 133.882 64.4633 132 64.9999C131.01 64.0099 130.02 63.0199 129 61.9999C142.633 56.2596 142.633 56.2596 149 56.9999Z" fill="#46ACD8"/>
<path d="M187 34C195.028 34.5536 202.339 36.6569 210 39C209.67 40.98 209.34 42.96 209 45C208.34 44.01 207.68 43.02 207 42C204.896 41.1294 204.896 41.1294 202.43 40.6133C201.086 40.2894 201.086 40.2894 199.715 39.959C198.778 39.7456 197.841 39.5323 196.875 39.3125C195.93 39.0876 194.985 38.8626 194.012 38.6309C191.677 38.0766 189.34 37.5335 187 37C187 36.01 187 35.02 187 34Z" fill="#BEC4CB"/>
<path d="M280 210C280.688 211.75 280.688 211.75 281 214C279.562 216.25 279.562 216.25 278 218C275.03 217.505 275.03 217.505 272 217C271.312 214.688 271.312 214.688 271 212C273.264 208.005 275.987 209.019 280 210Z" fill="#D5DFE4"/>
<path d="M63 101C63.99 101 64.98 101 66 101C65 108.429 65 108.429 64 112C63.34 112 62.68 112 62 112C61.67 114.64 61.34 117.28 61 120C60.01 120 59.02 120 58 120C58.5162 113.16 60.4859 107.361 63 101Z" fill="#ABB3BB"/>
<path d="M223 115C225.31 115 227.62 115 230 115C230 115.99 230 116.98 230 118C228.02 118 226.04 118 224 118C224 118.66 224 119.32 224 120C217.07 120 210.14 120 203 120C203.33 119.34 203.66 118.68 204 118C210.27 118 216.54 118 223 118C223 117.01 223 116.02 223 115Z" fill="#4181A4"/>
<path d="M221 100C225.208 103.753 227.163 106.78 229 112C229 112.99 229 113.98 229 115C227.02 115 225.04 115 223 115C222.661 113.439 222.329 111.876 222 110.312C221.814 109.442 221.629 108.572 221.438 107.676C221.01 105.063 220.924 102.642 221 100Z" fill="#07375F"/>
<path d="M103 115C111.91 115 120.82 115 130 115C129.67 115.66 129.34 116.32 129 117C120.42 117.33 111.84 117.66 103 118C103 117.01 103 116.02 103 115Z" fill="#F2FDFE"/>
<path d="M213 92C213.66 92 214.32 92 215 92C215 92.66 215 93.32 215 94C215.619 94.2681 216.238 94.5362 216.875 94.8125C219.609 96.3405 220.714 98.0723 221.633 101.051C222.59 105.448 223.232 109.468 223 114C220.453 111.453 219.792 109.069 218.562 105.688C217.03 101.475 215.322 97.824 213 94C213 93.34 213 92.68 213 92Z" fill="#155079"/>
<path d="M217 40C217.51 40.562 218.021 41.1241 218.547 41.7031C221.546 44.5109 224.775 46.5817 228.25 48.75C228.9 49.1612 229.549 49.5724 230.219 49.9961C231.81 51.0021 233.404 52.0017 235 53C234.67 53.99 234.34 54.98 234 56C231.335 54.6752 228.697 53.3188 226.062 51.9375C225.308 51.5669 224.553 51.1963 223.775 50.8145C221.636 49.6726 219.806 48.622 218 47C216.996 43.1914 216.996 43.1914 217 40Z" fill="#D1D8DE"/>
<path d="M125 180C125.99 180 126.98 180 128 180C128 182.97 128 185.94 128 189C130.31 189 132.62 189 135 189C135 189.99 135 190.98 135 192C131.7 192 128.4 192 125 192C125 188.04 125 184.08 125 180Z" fill="#1D2B3E"/>
<path d="M41 102C41.99 102.33 42.98 102.66 44 103C43.8143 104.217 43.6287 105.434 43.4375 106.688C43.01 110.03 43.0774 112.72 44 116C42.125 115.688 42.125 115.688 40 115C37.6742 111.511 37.5813 110.103 38 106C39.5 103.625 39.5 103.625 41 102Z" fill="#D1D6DB"/>
<path d="M146 35.0001C146 35.6601 146 36.3201 146 37.0001C143.583 37.6463 141.167 38.2921 138.75 38.9376C137.727 39.2112 137.727 39.2112 136.684 39.4903C133.461 40.3506 130.239 41.2069 127 42.0001C127 41.3401 127 40.6801 127 40.0001C126.34 40.0001 125.68 40.0001 125 40.0001C126 38.0001 126 38.0001 128.441 37.1485C134.461 35.6568 139.798 34.6423 146 35.0001Z" fill="#DCE0E4"/>
<path d="M251 232C251.66 232 252.32 232 253 232C256 237.625 256 237.625 256 241C253.03 241 250.06 241 247 241C247.526 237.212 248.381 234.828 251 232Z" fill="#192232"/>
<path d="M81 182C85.29 182 89.58 182 94 182C94 183.32 94 184.64 94 186C89.71 186 85.42 186 81 186C81 184.68 81 183.36 81 182Z" fill="#D4E1E3"/>
<path d="M240 205C240.66 205 241.32 205 242 205C241.499 209.385 240.017 211.8 237 215C236.34 215 235.68 215 235 215C235 214.01 235 213.02 235 212C234.01 212.33 233.02 212.66 232 213C230.606 213.067 229.208 213.085 227.812 213.062C225.925 213.032 225.925 213.032 224 213C224 212.34 224 211.68 224 211C228.629 209.984 232.345 210.162 237 211C237.309 210.196 237.619 209.391 237.938 208.562C239 206 239 206 240 205Z" fill="#789DB3"/>
<path d="M269 81C269.66 81.99 270.32 82.98 271 84C272.313 85.3537 273.646 86.688 275 88C275.66 88.66 276.32 89.32 277 90C274.375 91.625 274.375 91.625 271 93C267.625 92.1875 267.625 92.1875 265 91C266.32 87.7 267.64 84.4 269 81Z" fill="#0C2845"/>
<path d="M84 228C84.33 229.32 84.66 230.64 85 232C83.8244 232.124 83.8244 232.124 82.625 232.25C79.8525 232.728 79.8525 232.728 78.6875 235.062C78.3472 236.022 78.3472 236.022 78 237C77.01 236.67 76.02 236.34 75 236C74.75 233.687 74.75 233.687 75 231C77.8007 227.992 79.9899 227.666 84 228Z" fill="#EAF5F7"/>
<path d="M269 101C269.66 101 270.32 101 271 101C275.592 113.485 275.592 113.485 275 120C274.34 120 273.68 120 273 120C272.325 117.773 271.66 115.544 271 113.312C270.629 112.071 270.257 110.83 269.875 109.551C269.123 106.499 268.81 104.111 269 101Z" fill="#D4DAE0"/>
<path d="M182 121C184.64 121 187.28 121 190 121C190 121.66 190 122.32 190 123C188.02 123 186.04 123 184 123C184 124.32 184 125.64 184 127C186.97 127 189.94 127 193 127C193 127.66 193 128.32 193 129C189.37 129 185.74 129 182 129C182 126.36 182 123.72 182 121Z" fill="#FAFBFC"/>
<path d="M113 44C113.66 44.33 114.32 44.66 115 45C115 45.66 115 46.32 115 47C112.921 48.4769 110.867 49.814 108.688 51.125C108.093 51.4975 107.498 51.8701 106.885 52.2539C102.383 55 102.383 55 99 55C100.346 50.9632 102.96 49.8328 106.438 47.75C107.036 47.3736 107.635 46.9972 108.252 46.6094C109.794 45.6698 111.394 44.8268 113 44Z" fill="#C7CDD3"/>
<path d="M133 110C133 112.64 133 115.28 133 118C130.547 119.226 129.157 119.034 126.43 118.879C125.086 118.806 125.086 118.806 123.715 118.732C122.778 118.676 121.841 118.62 120.875 118.562C119.93 118.51 118.985 118.458 118.012 118.404C115.674 118.274 113.337 118.139 111 118C111 117.67 111 117.34 111 117C116.94 116.67 122.88 116.34 129 116C129.33 114.35 129.66 112.7 130 111C132 110 132 110 133 110Z" fill="#D3F0F8"/>
<path d="M272 75C277.75 75.75 277.75 75.75 280 78C280.125 81.625 280.125 81.625 280 85C277 81.375 277 81.375 277 78C276.34 78 275.68 78 275 78C274.67 79.98 274.34 81.96 274 84C273.67 84 273.34 84 273 84C273 82.35 273 80.7 273 79C272.34 78.67 271.68 78.34 271 78C271.33 77.01 271.66 76.02 272 75Z" fill="#3A7FA3"/>
<path d="M76 77C76.66 77.66 77.32 78.32 78 79C75.03 83.95 75.03 83.95 72 89C71.01 88.67 70.02 88.34 69 88C69.7843 86.3506 70.5777 84.7056 71.375 83.0625C71.8159 82.146 72.2567 81.2295 72.7109 80.2852C74 78 74 78 76 77Z" fill="#BEC4CB"/>
<path d="M155 243C158.96 243 162.92 243 167 243C167 243.66 167 244.32 167 245C169.64 245 172.28 245 175 245C175 245.33 175 245.66 175 246C172.416 246.054 169.834 246.094 167.25 246.125C166.52 246.142 165.791 246.159 165.039 246.176C161.196 246.211 158.254 246.175 155 244C155 243.67 155 243.34 155 243Z" fill="#53B4D6"/>
<path d="M186 57C191.661 57.4966 195.877 58.5451 201 61C200.67 61.66 200.34 62.32 200 63C198.416 62.6887 196.833 62.3759 195.25 62.0625C194.368 61.8885 193.487 61.7145 192.578 61.5352C190.368 61.0763 188.185 60.5666 186 60C186 59.01 186 58.02 186 57Z" fill="#3699C9"/>
<path d="M129 88.0001C131.383 87.7071 131.383 87.7071 134.125 87.8126C135.035 87.8396 135.945 87.8667 136.883 87.8946C137.581 87.9294 138.28 87.9642 139 88.0001C138.01 89.9801 137.02 91.9601 136 94.0001C133.03 93.0101 130.06 92.0201 127 91.0001C127.66 90.0101 128.32 89.0201 129 88.0001Z" fill="#5ABCE3"/>
<path d="M216 69C218.97 70.98 221.94 72.96 225 75C224.67 75.99 224.34 76.98 224 78C220.421 76.3483 217.252 74.2171 214 72C214.66 71.67 215.32 71.34 216 71C216 70.34 216 69.68 216 69Z" fill="#4FAAD3"/>
<path d="M167.062 32.9375C168.517 32.9684 168.517 32.9684 170 33C170 34.32 170 35.64 170 37C168.02 37.99 166.04 38.98 164 40C163 39 163 39 162.875 36.5C163.06 32.809 163.299 33.0143 167.062 32.9375Z" fill="#379CC5"/>
<path d="M128 212C131.672 215.08 132.568 217.248 133 222C129.663 220.827 127.226 219.811 125 217C125 216.34 125 215.68 125 215C125.66 215 126.32 215 127 215C127.33 214.01 127.66 213.02 128 212Z" fill="#717985"/>
<path d="M182 115C185.63 115 189.26 115 193 115C193 115.66 193 116.32 193 117C190.03 117 187.06 117 184 117C184 117.99 184 118.98 184 120C185.98 120 187.96 120 190 120C190 120.33 190 120.66 190 121C187.36 121 184.72 121 182 121C182 119.02 182 117.04 182 115Z" fill="#D0D3D6"/>
<path d="M140 19C139.67 21.31 139.34 23.62 139 26C138.67 25.34 138.34 24.68 138 24C135.473 23.3444 135.473 23.3444 133 23C133.33 21.68 133.66 20.36 134 19C137.75 17.875 137.75 17.875 140 19Z" fill="#295E7E"/>
<path d="M60 208C59.01 208.495 59.01 208.495 58 209C58.33 210.98 58.66 212.96 59 215C57.0625 214.625 57.0625 214.625 55 214C54.67 213.34 54.34 212.68 54 212C53.34 212.99 52.68 213.98 52 215C52.375 212.063 52.375 212.063 53 209C55.4628 207.769 57.2795 207.929 60 208Z" fill="#7D8C99"/>
<path d="M64 199C64.66 199 65.32 199 66 199C66.33 200.32 66.66 201.64 67 203C67.66 203 68.32 203 69 203C70.0764 206.875 69.9457 208.525 68 212C67.324 210.588 66.6596 209.17 66 207.75C65.6287 206.961 65.2575 206.172 64.875 205.359C64 203 64 203 64 199Z" fill="#A9B5BE"/>
<path d="M230 82C231.65 82 233.3 82 235 82C235.33 83.65 235.66 85.3 236 87C234.35 87.33 232.7 87.66 231 88C229.938 86.125 229.938 86.125 229 84C229.33 83.34 229.66 82.68 230 82Z" fill="#44A3CF"/>
<path d="M270 78C271.32 78.33 272.64 78.66 274 79C274 81.31 274 83.62 274 86C275.32 86.33 276.64 86.66 278 87C276.35 87.33 274.7 87.66 273 88C270.646 85.4493 270.017 84.2898 269.812 80.75C269.874 79.8425 269.936 78.935 270 78Z" fill="#4CA6CD"/>
<path d="M199 73C201.31 74.98 203.62 76.96 206 79C205.67 79.99 205.34 80.98 205 82C203.35 81.67 201.7 81.34 200 81C200 80.01 200 79.02 200 78C199.01 77.67 198.02 77.34 197 77C197.66 75.68 198.32 74.36 199 73Z" fill="#389CC5"/>
<path d="M256 78C256.99 78 257.98 78 259 78C263 84.5 263 84.5 263 89C262.34 89 261.68 89 261 89C260.162 87.5446 259.329 86.0856 258.5 84.625C257.804 83.4068 257.804 83.4068 257.094 82.1641C256 80 256 80 256 78Z" fill="#CDD4DA"/>
<path d="M53 78C53.99 78.33 54.98 78.66 56 79C55.67 81.31 55.34 83.62 55 86C52.5625 85.1875 52.5625 85.1875 50 84C49.67 83.01 49.34 82.02 49 81C50.8125 79.4375 50.8125 79.4375 53 78Z" fill="#D0D5DB"/>
<path d="M82 59C83.65 59.33 85.3 59.66 87 60C86.67 61.65 86.34 63.3 86 65C84.35 64.67 82.7 64.34 81 64C81.33 62.35 81.66 60.7 82 59Z" fill="#E7EAED"/>
<path d="M188 220C188 223 188 223 186.391 224.789C185.684 225.395 184.978 226.001 184.25 226.625C183.554 227.236 182.858 227.847 182.141 228.477C180.024 229.983 178.536 230.577 176 231C179.804 227.081 183.816 223.509 188 220Z" fill="#186698"/>
<path d="M198 204C200.97 204.99 203.94 205.98 207 207C206.67 207.66 206.34 208.32 206 209C203.36 208.67 200.72 208.34 198 208C198 206.68 198 205.36 198 204Z" fill="#3CA4C3"/>
<path d="M198 202C197.67 203.65 197.34 205.3 197 207C196.01 207.33 195.02 207.66 194 208C194 207.34 194 206.68 194 206C191.03 205.505 191.03 205.505 188 205C188.33 204.34 188.66 203.68 189 203C192.02 202.451 194.926 202 198 202Z" fill="#5DD0EE"/>
<path d="M100 82C101.675 82.286 103.344 82.6178 105 83C104.67 84.32 104.34 85.64 104 87C102.68 87.33 101.36 87.66 100 88C99.6178 86.3439 99.286 84.6754 99 83C99.33 82.67 99.66 82.34 100 82Z" fill="#34A7D2"/>
<path d="M65 81C65.99 81.66 66.98 82.32 68 83C68.1875 85.625 68.1875 85.625 68 88C66.68 88.33 65.36 88.66 64 89C63.67 88.01 63.34 87.02 63 86C63.33 85.34 63.66 84.68 64 84C63.34 83.67 62.68 83.34 62 83C62.99 83 63.98 83 65 83C65 82.34 65 81.68 65 81Z" fill="#061B36"/>
<path d="M175 71C180.97 71.2912 183.895 74.0281 188 78C187.01 79.485 187.01 79.485 186 81C185.484 80.2575 184.969 79.515 184.438 78.75C181.525 75.4637 178.876 74.0124 175 72C175 71.67 175 71.34 175 71Z" fill="#D4F8FC"/>
<path d="M104 32C105.32 32.99 106.64 33.98 108 35C107.34 36.32 106.68 37.64 106 39C103 39 103 39 101.312 37.5C100.879 37.005 100.446 36.51 100 36C100.99 35.67 101.98 35.34 103 35C103.33 34.01 103.66 33.02 104 32Z" fill="#AFB5BD"/>
<path d="M278 210C278 211.667 278 213.333 278 215C277.402 214.814 276.804 214.629 276.188 214.437C273.836 213.779 273.836 213.779 271 215C271.375 212.562 271.375 212.562 272 210C274.491 208.754 275.411 209.223 278 210Z" fill="#8395A4"/>
<path d="M225 105C227.979 107.979 229 110.803 229 115C227.35 115 225.7 115 224 115C224.33 111.7 224.66 108.4 225 105Z" fill="#032D51"/>
<path d="M215 179C218.125 179.375 218.125 179.375 221 180C221 180.99 221 181.98 221 183C219.02 183.33 217.04 183.66 215 184C215 183.34 215 182.68 215 182C214.34 181.67 213.68 181.34 213 181C213.66 180.34 214.32 179.68 215 179Z" fill="#2E3647"/>
<path d="M95 90C95.99 90.33 96.98 90.66 98 91C98 91.99 98 92.98 98 94C95.4682 96.3572 94.5281 97 91 97C92.074 94.0848 92.7781 92.2219 95 90Z" fill="#3BACD7"/>
<path d="M161 180C163.31 180 165.62 180 168 180C168 180.99 168 181.98 168 183C166.35 182.67 164.7 182.34 163 182C162.67 182.99 162.34 183.98 162 185C161.34 185 160.68 185 160 185C160.33 183.35 160.66 181.7 161 180Z" fill="#0C1428"/>
<path d="M61 110C61.33 110 61.66 110 62 110C61.67 113.3 61.34 116.6 61 120C60.01 120 59.02 120 58 120C58.33 117.36 58.66 114.72 59 112C59.66 112 60.32 112 61 112C61 111.34 61 110.68 61 110Z" fill="#CED4D8"/>
<path d="M162 44C162.99 44 163.98 44 165 44C165 46.31 165 48.62 165 51C162.98 50.3982 160.979 49.7269 159 49C158.67 48.34 158.34 47.68 158 47C159.65 47 161.3 47 163 47C162.67 46.01 162.34 45.02 162 44Z" fill="#3D9EC1"/>
<path d="M156 17C157.65 17.33 159.3 17.66 161 18C160.67 19.32 160.34 20.64 160 22C158.35 21.67 156.7 21.34 155 21C155.33 19.68 155.66 18.36 156 17Z" fill="#DEE1E4"/>
<path d="M251 235C252.32 235.33 253.64 235.66 255 236C255.33 237.65 255.66 239.3 256 241C253.69 241 251.38 241 249 241C249.66 239.02 250.32 237.04 251 235Z" fill="#757B86"/>
<path d="M261 214C261.66 214 262.32 214 263 214C262.474 217.788 261.619 220.172 259 223C258.34 223 257.68 223 257 223C257.645 219.517 258.982 216.906 261 214Z" fill="#D7DFE5"/>
<path d="M145 180C146.32 180 147.64 180 149 180C149.33 181.32 149.66 182.64 150 184C147.69 184.66 145.38 185.32 143 186C143.66 184.02 144.32 182.04 145 180Z" fill="#1C2538"/>
<path d="M59 80C61.97 80.495 61.97 80.495 65 81C65 81.66 65 82.32 65 83C64.3813 83.2887 63.7625 83.5775 63.125 83.875C60.8667 84.9372 60.8667 84.9372 59 87C59 85.68 59 84.36 59 83C58.01 82.67 57.02 82.34 56 82C56.99 82 57.98 82 59 82C59 81.34 59 80.68 59 80Z" fill="#D4DADF"/>
<path d="M135 231C136.604 231.479 138.208 231.958 139.812 232.438C141.152 232.838 141.152 232.838 142.52 233.246C144.355 233.804 146.18 234.393 148 235C148 235.66 148 236.32 148 237C142.719 236.485 139.428 234.745 135 232C135 231.67 135 231.34 135 231Z" fill="#8EA0AA"/>
<path d="M81 227C85.1276 227.469 88.0529 227.94 91 231C91 232.32 91 233.64 91 235C90.34 235 89.68 235 89 235C88.5669 234.216 88.1337 233.433 87.6875 232.625C85.732 229.583 84.3979 229.01 81 228C81 227.67 81 227.34 81 227Z" fill="#176995"/>
<path d="M118 189C116.812 190.563 116.812 190.563 115 192C112.375 191.813 112.375 191.813 110 191C109.67 190.34 109.34 189.68 109 189C112.378 188.156 114.675 187.892 118 189Z" fill="#19203C"/>
<path d="M273 110C275.429 113.644 275.162 115.712 275 120C274.34 120 273.68 120 273 120C271.63 117.261 271.874 115.029 272 112C272.33 111.34 272.66 110.68 273 110Z" fill="#CED4DA"/>
<path d="M133 37C133 37.66 133 38.32 133 39C133.66 39.33 134.32 39.66 135 40C132.36 40.66 129.72 41.32 127 42C127 41.34 127 40.68 127 40C126.34 40 125.68 40 125 40C125.33 39.34 125.66 38.68 126 38C128.386 37.3881 130.535 37 133 37Z" fill="#BEC5CB"/>
<path d="M111 180C112.98 180 114.96 180 117 180C117 180.99 117 181.98 117 183C114.537 184.231 112.72 184.072 110 184C110.33 182.68 110.66 181.36 111 180Z" fill="#161E33"/>
<path d="M248 106C249.562 107.75 249.562 107.75 251 110C250.688 112.25 250.688 112.25 250 114C249.01 113.67 248.02 113.34 247 113C246.312 110.938 246.312 110.938 246 109C246.66 109 247.32 109 248 109C248 108.01 248 107.02 248 106Z" fill="#57ABD1"/>
<path d="M219 102C221.042 103.692 221.918 104.637 222.512 107.262C222.57 108.062 222.628 108.863 222.688 109.688C222.753 110.496 222.819 111.304 222.887 112.137C222.924 112.752 222.961 113.366 223 114C220.495 111.495 219.949 109.389 219 106C219 104.68 219 103.36 219 102Z" fill="#094A7A"/>
<path d="M187 34C189.97 34.33 192.94 34.66 196 35C195.01 36.485 195.01 36.485 194 38C191.69 37.67 189.38 37.34 187 37C187 36.01 187 35.02 187 34Z" fill="#B5BAC3"/>
<path d="M211 233C211 233.99 211 234.98 211 236C209.02 236.66 207.04 237.32 205 238C204.67 237.01 204.34 236.02 204 235C206.647 233.539 207.894 233 211 233Z" fill="#3EA4CD"/>
<path d="M166 225C166.99 225 167.98 225 169 225C169 227.31 169 229.62 169 232C168.01 232 167.02 232 166 232C166 229.69 166 227.38 166 225Z" fill="#14699B"/>
<path d="M212 215C208.803 217.649 205.605 219.94 202 222C204.345 216.769 206.017 214.515 212 215Z" fill="#596371"/>
<path d="M92 205C92.66 205 93.32 205 94 205C95.6875 207.375 95.6875 207.375 97 210C96.67 210.66 96.34 211.32 96 212C95.01 211.67 94.02 211.34 93 211C91.8125 208.438 91.8125 208.438 91 206C91.33 205.67 91.66 205.34 92 205Z" fill="#15649A"/>
<path d="M240 205C240.66 205 241.32 205 242 205C241.25 209.75 241.25 209.75 239 212C238.01 211.67 237.02 211.34 236 211C237.274 208.962 238.611 206.961 240 205Z" fill="#186092"/>
<path d="M199 201C198.67 201.66 198.34 202.32 198 203C196.074 203.379 196.074 203.379 193.688 203.562C190.682 203.806 187.909 204.195 185 205C185.33 204.01 185.66 203.02 186 202C187.416 201.831 188.833 201.665 190.25 201.5C191.433 201.361 191.433 201.361 192.641 201.219C195 201 195 201 199 201Z" fill="#3E8CAC"/>
<path d="M85 106C87 108 87 108 87.125 110.625C87.0837 111.409 87.0425 112.192 87 113C85.68 113 84.36 113 83 113C83.66 110.69 84.32 108.38 85 106Z" fill="#51B5D8"/>
<path d="M121 93C121.66 93.99 122.32 94.98 123 96C121.02 98.64 119.04 101.28 117 104C116.67 103.34 116.34 102.68 116 102C116.996 99.8359 116.996 99.8359 118.438 97.375C118.911 96.5577 119.384 95.7405 119.871 94.8984C120.244 94.272 120.616 93.6455 121 93Z" fill="#E0F7FB"/>
<path d="M55 75C55.99 75 56.98 75 58 75C59.6875 77.5 59.6875 77.5 61 80C60.34 80 59.68 80 59 80C58.67 80.66 58.34 81.32 58 82C56.68 80.35 55.36 78.7 54 77C54.33 76.34 54.66 75.68 55 75Z" fill="#B0B7C0"/>
<path d="M199 72C203.75 72.875 203.75 72.875 206 74C206 75.65 206 77.3 206 79C204.83 78.0243 203.664 77.0444 202.5 76.0625C201.85 75.5172 201.201 74.972 200.531 74.4102C200.026 73.9448 199.521 73.4795 199 73C199 72.67 199 72.34 199 72Z" fill="#112D4A"/>
<path d="M161 71C158.03 72.65 155.06 74.3 152 76C152 75.34 152 74.68 152 74C151.34 73.67 150.68 73.34 150 73C156.5 69.875 156.5 69.875 161 71Z" fill="#D0F6FB"/>
<path d="M193 36C199.75 35.875 199.75 35.875 202 37C202 37.66 202 38.32 202 39C196.462 39.3692 196.462 39.3692 194.125 37.5C193.754 37.005 193.382 36.51 193 36Z" fill="#DFE2E6"/>
<path d="M149 186C149.99 186.33 150.98 186.66 152 187C152.33 188.65 152.66 190.3 153 192C152.01 192 151.02 192 150 192C150 191.01 150 190.02 150 189C148.68 188.67 147.36 188.34 146 188C146.99 188 147.98 188 149 188C149 187.34 149 186.68 149 186Z" fill="#1F283D"/>
<path d="M66 93C68.475 93.495 68.475 93.495 71 94C70.34 95.32 69.68 96.64 69 98C68.01 97.67 67.02 97.34 66 97C66 95.68 66 94.36 66 93Z" fill="#E7E8EB"/>
<path d="M274 74C277.375 73.8125 277.375 73.8125 281 74C281.66 74.99 282.32 75.98 283 77C281.312 77.6875 281.312 77.6875 279 78C276.25 76.625 276.25 76.625 274 75C274 74.67 274 74.34 274 74Z" fill="#489DC3"/>
<path d="M200 64C201.458 63.946 202.916 63.9072 204.375 63.875C205.187 63.8518 205.999 63.8286 206.836 63.8047C209 64 209 64 211 66C210.01 66 209.02 66 208 66C207.67 66.66 207.34 67.32 207 68C204.69 67.01 202.38 66.02 200 65C200 64.67 200 64.34 200 64Z" fill="#4FA2CB"/>
<path d="M178 188C179.675 188.286 181.344 188.618 183 189C183 189.66 183 190.32 183 191C183.66 191.33 184.32 191.66 185 192C182.125 192.188 182.125 192.188 179 192C178.34 191.01 177.68 190.02 177 189C177.33 188.67 177.66 188.34 178 188Z" fill="#24293C"/>
<path d="M223 231C223 231.66 223 232.32 223 233C222.34 233 221.68 233 221 233C221 233.66 221 234.32 221 235C220.34 235 219.68 235 219 235C219 234.34 219 233.68 219 233C218.34 233 217.68 233 217 233C217 232.34 217 231.68 217 231C219.491 229.754 220.411 230.223 223 231Z" fill="#347DAC"/>
<path d="M191 213C191.66 214.32 192.32 215.64 193 217C191.35 218.32 189.7 219.64 188 221C187.34 220.67 186.68 220.34 186 220C186.639 219.216 187.279 218.433 187.938 217.625C189.981 215.205 189.981 215.205 191 213Z" fill="#4CB1D7"/>
<path d="M275 77C277.475 77.495 277.475 77.495 280 78C280 80.31 280 82.62 280 85C277 81.375 277 81.375 277 78C276.34 77.67 275.68 77.34 275 77Z" fill="#02172D"/>
<path d="M106 50C105 53 105 53 102 55C101.01 55 100.02 55 99 55C100 52 100 52 101.938 50.8125C104 50 104 50 106 50Z" fill="#D6DADE"/>
<path d="M217 40C219 42 221 44 223 46C222.01 46.66 221.02 47.32 220 48C219.34 47.67 218.68 47.34 218 47C217.593 44.6784 217.256 42.3431 217 40Z" fill="#C0C8D0"/>
<path d="M274 84C276.97 84.495 276.97 84.495 280 85C280 86.32 280 87.64 280 89C278.35 89 276.7 89 275 89C275.66 88.34 276.32 87.68 277 87C276.01 86.67 275.02 86.34 274 86C274 85.34 274 84.68 274 84Z" fill="#327496"/>
<path d="M206 79C208.743 82.1999 210.63 85.005 212 89C208.464 85.8268 206.414 83.8326 206 79Z" fill="#174775"/>
<path d="M138 35C140.64 35 143.28 35 146 35C146 35.66 146 36.32 146 37C144.02 37.33 142.04 37.66 140 38C140 37.34 140 36.68 140 36C139.34 35.67 138.68 35.34 138 35Z" fill="#CACFD5"/>
</g>
<defs>
<clipPath id="clip0_1487_3156">
<rect width="325" height="271" fill="white"/>
</clipPath>
</defs>
</svg>
